<svg xmlns="http://www.w3.org/2000/svg" xmlns:xlink="http://www.w3.org/1999/xlink" width="500" zoomAndPan="magnify" viewBox="0 0 375 374.999991" height="500" preserveAspectRatio="xMidYMid meet" version="1.0"><defs><clipPath id="831db71ed3"><path d="M 0 234 L 127 234 L 127 337.59375 L 0 337.59375 Z M 0 234 " clip-rule="nonzero"/></clipPath><clipPath id="d5811af4d8"><path d="M 303 28.59375 L 375 28.59375 L 375 135 L 303 135 Z M 303 28.59375 " clip-rule="nonzero"/></clipPath></defs><g clip-path="url(#831db71ed3)"><path fill="#0f6523" d="M 119.609375 264.902344 L 111.382812 264.902344 L 106.070312 248.332031 C 103.335938 239.8125 95.488281 234.089844 86.542969 234.089844 L 39.527344 234.089844 C 30.578125 234.089844 22.734375 239.8125 20 248.332031 L 14.683594 264.902344 L 6.460938 264.902344 C 2.890625 264.902344 0 267.792969 0 271.363281 L 0 275.015625 C 0 278.585938 2.890625 281.476562 6.460938 281.476562 L 8.769531 281.476562 C 7.453125 287.449219 6.753906 293.539062 6.753906 299.675781 L 6.753906 330.925781 C 6.753906 334.496094 9.648438 337.386719 13.210938 337.386719 L 24.03125 337.386719 C 27.601562 337.386719 30.492188 334.496094 30.492188 330.925781 L 30.492188 320.945312 L 95.574219 320.945312 L 95.574219 330.925781 C 95.574219 334.496094 98.46875 337.386719 102.039062 337.386719 L 112.855469 337.386719 C 116.421875 337.386719 119.316406 334.496094 119.316406 330.925781 L 119.316406 299.675781 C 119.316406 293.539062 118.613281 287.449219 117.300781 281.476562 L 119.609375 281.476562 C 123.175781 281.476562 126.070312 278.585938 126.070312 275.015625 L 126.070312 271.363281 C 126.070312 267.792969 123.175781 264.902344 119.609375 264.902344 Z M 39.734375 303.21875 L 26.636719 303.21875 C 24.441406 303.21875 22.660156 301.4375 22.660156 299.242188 L 22.660156 293.0625 C 22.660156 290.613281 24.851562 288.746094 27.269531 289.136719 L 39.472656 291.113281 C 41.089844 291.375 42.378906 292.601562 42.722656 294.207031 L 43.625 298.40625 C 44.152344 300.882812 42.269531 303.21875 39.734375 303.21875 Z M 103.410156 299.242188 C 103.410156 301.4375 101.625 303.21875 99.433594 303.21875 L 86.332031 303.21875 C 83.800781 303.21875 81.914062 300.882812 82.445312 298.40625 L 83.34375 294.207031 C 83.6875 292.601562 84.980469 291.375 86.597656 291.113281 L 98.796875 289.136719 C 101.214844 288.746094 103.410156 290.613281 103.410156 293.0625 Z M 103.410156 299.242188 " fill-opacity="1" fill-rule="nonzero"/></g><g clip-path="url(#d5811af4d8)"><path fill="#0f6523" d="M 339.296875 28.667969 C 319.578125 28.667969 303.589844 44.652344 303.589844 64.371094 C 303.589844 86.65625 324.722656 118.183594 334.472656 131.550781 C 336.863281 134.824219 341.726562 134.824219 344.121094 131.550781 C 353.871094 118.183594 375 86.65625 375 64.371094 C 375 44.652344 359.015625 28.667969 339.296875 28.667969 Z M 339.476562 81.492188 C 329.921875 81.492188 322.175781 73.75 322.175781 64.195312 C 322.175781 54.640625 329.921875 46.894531 339.476562 46.894531 C 349.027344 46.894531 356.773438 54.640625 356.773438 64.195312 C 356.773438 73.75 349.027344 81.492188 339.476562 81.492188 Z M 339.476562 81.492188 " fill-opacity="1" fill-rule="nonzero"/></g><path fill="#0f6523" d="M 149.230469 294.609375 L 139.710938 294.609375 C 136.027344 294.609375 133.046875 297.59375 133.046875 301.277344 C 133.046875 304.957031 136.027344 307.941406 139.710938 307.941406 L 149.230469 307.941406 C 152.914062 307.941406 155.894531 304.957031 155.894531 301.277344 C 155.894531 297.59375 152.914062 294.609375 149.230469 294.609375 Z M 149.230469 294.609375 " fill-opacity="1" fill-rule="nonzero"/><path fill="#0f6523" d="M 159.753906 169.511719 C 162.8125 169.511719 165.574219 167.386719 166.257812 164.269531 C 166.828125 161.65625 167.695312 159.105469 168.835938 156.683594 C 170.398438 153.351562 168.96875 149.378906 165.636719 147.8125 C 162.300781 146.261719 158.335938 147.6875 156.769531 151.011719 C 155.210938 154.335938 154.019531 157.835938 153.234375 161.417969 C 152.445312 165.011719 154.722656 168.566406 158.320312 169.351562 C 158.800781 169.460938 159.277344 169.511719 159.753906 169.511719 Z M 159.753906 169.511719 " fill-opacity="1" fill-rule="nonzero"/><path fill="#0f6523" d="M 305.300781 122.28125 L 295.777344 122.28125 C 292.097656 122.28125 289.113281 125.265625 289.113281 128.949219 C 289.113281 132.628906 292.097656 135.613281 295.777344 135.613281 L 305.300781 135.613281 C 308.980469 135.613281 311.964844 132.628906 311.964844 128.949219 C 311.964844 125.265625 308.980469 122.28125 305.300781 122.28125 Z M 305.300781 122.28125 " fill-opacity="1" fill-rule="nonzero"/><path fill="#0f6523" d="M 182.289062 140.332031 C 183.3125 140.332031 184.351562 140.097656 185.328125 139.59375 C 187.714844 138.371094 190.234375 137.414062 192.824219 136.746094 C 196.390625 135.828125 198.535156 132.199219 197.617188 128.632812 C 196.699219 125.066406 193.058594 122.902344 189.503906 123.839844 C 185.957031 124.75 182.507812 126.0625 179.242188 127.738281 C 175.964844 129.417969 174.671875 133.433594 176.355469 136.710938 C 177.535156 139.011719 179.867188 140.332031 182.289062 140.332031 Z M 182.289062 140.332031 " fill-opacity="1" fill-rule="nonzero"/><path fill="#0f6523" d="M 257.695312 135.613281 L 267.214844 135.613281 C 270.894531 135.613281 273.878906 132.628906 273.878906 128.949219 C 273.878906 125.265625 270.894531 122.28125 267.214844 122.28125 L 257.695312 122.28125 C 254.015625 122.28125 251.03125 125.265625 251.03125 128.949219 C 251.03125 132.628906 254.015625 135.613281 257.695312 135.613281 Z M 257.695312 135.613281 " fill-opacity="1" fill-rule="nonzero"/><path fill="#0f6523" d="M 219.609375 135.613281 L 229.132812 135.613281 C 232.8125 135.613281 235.796875 132.628906 235.796875 128.949219 C 235.796875 125.265625 232.8125 122.28125 229.132812 122.28125 L 219.609375 122.28125 C 215.929688 122.28125 212.945312 125.265625 212.945312 128.949219 C 212.945312 132.628906 215.929688 135.613281 219.609375 135.613281 Z M 219.609375 135.613281 " fill-opacity="1" fill-rule="nonzero"/><path fill="#0f6523" d="M 225.402344 294.609375 L 215.878906 294.609375 C 212.199219 294.609375 209.214844 297.59375 209.214844 301.277344 C 209.214844 304.957031 212.199219 307.941406 215.878906 307.941406 L 225.402344 307.941406 C 229.082031 307.941406 232.066406 304.957031 232.066406 301.277344 C 232.066406 297.59375 229.082031 294.609375 225.402344 294.609375 Z M 225.402344 294.609375 " fill-opacity="1" fill-rule="nonzero"/><path fill="#0f6523" d="M 262.136719 293.921875 C 259.816406 294.375 257.4375 294.609375 255.078125 294.609375 L 253.964844 294.609375 C 250.28125 294.609375 247.300781 297.59375 247.300781 301.277344 C 247.300781 304.957031 250.28125 307.941406 253.964844 307.941406 L 255.078125 307.941406 C 258.304688 307.941406 261.546875 307.621094 264.722656 306.996094 C 268.332031 306.28125 270.683594 302.777344 269.96875 299.164062 C 269.253906 295.558594 265.761719 293.199219 262.136719 293.921875 Z M 262.136719 293.921875 " fill-opacity="1" fill-rule="nonzero"/><path fill="#0f6523" d="M 279.5625 214.929688 C 276.367188 213.113281 272.976562 211.652344 269.484375 210.589844 C 265.960938 209.5 262.238281 211.5 261.164062 215.019531 C 260.09375 218.539062 262.078125 222.261719 265.597656 223.335938 C 268.148438 224.117188 270.628906 225.1875 272.972656 226.515625 C 274.011719 227.105469 275.144531 227.390625 276.261719 227.390625 C 278.582031 227.390625 280.832031 226.175781 282.058594 224.019531 C 283.878906 220.820312 282.761719 216.75 279.5625 214.929688 Z M 279.5625 214.929688 " fill-opacity="1" fill-rule="nonzero"/><path fill="#0f6523" d="M 296.203125 272.644531 C 292.96875 270.890625 288.921875 272.097656 287.175781 275.339844 C 285.898438 277.699219 284.363281 279.929688 282.605469 281.960938 C 280.195312 284.746094 280.5 288.953125 283.28125 291.359375 C 284.542969 292.453125 286.09375 292.988281 287.640625 292.988281 C 289.507812 292.988281 291.363281 292.207031 292.683594 290.679688 C 295.078125 287.914062 297.167969 284.882812 298.902344 281.671875 C 300.652344 278.429688 299.441406 274.390625 296.203125 272.644531 Z M 296.203125 272.644531 " fill-opacity="1" fill-rule="nonzero"/><path fill="#0f6523" d="M 239.167969 208.445312 L 229.644531 208.445312 C 225.964844 208.445312 222.980469 211.429688 222.980469 215.113281 C 222.980469 218.792969 225.964844 221.777344 229.644531 221.777344 L 239.167969 221.777344 C 242.847656 221.777344 245.832031 218.792969 245.832031 215.113281 C 245.832031 211.429688 242.847656 208.445312 239.167969 208.445312 Z M 239.167969 208.445312 " fill-opacity="1" fill-rule="nonzero"/><path fill="#0f6523" d="M 292.300781 235.566406 C 288.902344 236.984375 287.296875 240.886719 288.714844 244.285156 C 289.746094 246.761719 290.503906 249.351562 290.960938 251.976562 C 291.523438 255.222656 294.339844 257.507812 297.519531 257.507812 C 297.898438 257.507812 298.28125 257.472656 298.667969 257.402344 C 302.292969 256.777344 304.722656 253.328125 304.09375 249.699219 C 303.464844 246.089844 302.433594 242.539062 301.015625 239.152344 C 299.601562 235.757812 295.699219 234.160156 292.300781 235.566406 Z M 292.300781 235.566406 " fill-opacity="1" fill-rule="nonzero"/><path fill="#0f6523" d="M 187.316406 294.609375 L 177.796875 294.609375 C 174.113281 294.609375 171.132812 297.59375 171.132812 301.277344 C 171.132812 304.957031 174.113281 307.941406 177.796875 307.941406 L 187.316406 307.941406 C 191 307.941406 193.980469 304.957031 193.980469 301.277344 C 193.980469 297.59375 191 294.609375 187.316406 294.609375 Z M 187.316406 294.609375 " fill-opacity="1" fill-rule="nonzero"/><path fill="#0f6523" d="M 201.199219 208.445312 C 198.519531 208.398438 195.839844 208.054688 193.242188 207.417969 C 189.671875 206.535156 186.0625 208.738281 185.1875 212.3125 C 184.316406 215.894531 186.507812 219.496094 190.085938 220.371094 C 193.640625 221.234375 197.300781 221.707031 200.96875 221.769531 C 201.011719 221.773438 201.046875 221.773438 201.085938 221.773438 C 204.710938 221.773438 207.6875 218.863281 207.75 215.222656 C 207.8125 211.542969 204.878906 208.503906 201.199219 208.445312 Z M 201.199219 208.445312 " fill-opacity="1" fill-rule="nonzero"/><path fill="#0f6523" d="M 173.300781 194.578125 C 171.625 192.472656 170.191406 190.179688 169.023438 187.777344 C 167.421875 184.457031 163.4375 183.074219 160.121094 184.675781 C 156.808594 186.277344 155.421875 190.269531 157.027344 193.578125 C 158.613281 196.863281 160.574219 199.984375 162.851562 202.863281 C 164.167969 204.523438 166.113281 205.386719 168.082031 205.386719 C 169.53125 205.386719 170.992188 204.914062 172.214844 203.941406 C 175.101562 201.65625 175.585938 197.464844 173.300781 194.578125 Z M 173.300781 194.578125 " fill-opacity="1" fill-rule="nonzero"/></svg>