<svg xmlns="http://www.w3.org/2000/svg" xmlns:xlink="http://www.w3.org/1999/xlink" width="500" zoomAndPan="magnify" viewBox="0 0 375 374.999991" height="500" preserveAspectRatio="xMidYMid meet" version="1.0"><defs><clipPath id="89ae207c4f"><path d="M 303 33.046875 L 375 33.046875 L 375 139 L 303 139 Z M 303 33.046875 " clip-rule="nonzero"/></clipPath></defs><path fill="#a6a6a6" d="M 119.609375 269.355469 L 111.382812 269.355469 L 106.070312 252.785156 C 103.335938 244.265625 95.488281 238.542969 86.542969 238.542969 L 39.527344 238.542969 C 30.578125 238.542969 22.734375 244.265625 20 252.785156 L 14.683594 269.355469 L 6.460938 269.355469 C 2.890625 269.355469 0 272.246094 0 275.816406 L 0 279.46875 C 0 283.039062 2.890625 285.929688 6.460938 285.929688 L 8.769531 285.929688 C 7.453125 291.902344 6.753906 297.992188 6.753906 304.128906 L 6.753906 335.378906 C 6.753906 338.949219 9.648438 341.839844 13.210938 341.839844 L 24.03125 341.839844 C 27.601562 341.839844 30.492188 338.949219 30.492188 335.378906 L 30.492188 325.398438 L 95.574219 325.398438 L 95.574219 335.378906 C 95.574219 338.949219 98.46875 341.839844 102.039062 341.839844 L 112.855469 341.839844 C 116.421875 341.839844 119.316406 338.949219 119.316406 335.378906 L 119.316406 304.128906 C 119.316406 297.992188 118.613281 291.902344 117.300781 285.929688 L 119.609375 285.929688 C 123.175781 285.929688 126.070312 283.039062 126.070312 279.46875 L 126.070312 275.816406 C 126.070312 272.246094 123.175781 269.355469 119.609375 269.355469 Z M 39.734375 307.671875 L 26.636719 307.671875 C 24.441406 307.671875 22.660156 305.890625 22.660156 303.695312 L 22.660156 297.515625 C 22.660156 295.066406 24.851562 293.199219 27.269531 293.589844 L 39.472656 295.566406 C 41.089844 295.828125 42.378906 297.054688 42.722656 298.660156 L 43.625 302.859375 C 44.152344 305.335938 42.269531 307.671875 39.734375 307.671875 Z M 103.410156 303.695312 C 103.410156 305.890625 101.625 307.671875 99.433594 307.671875 L 86.332031 307.671875 C 83.800781 307.671875 81.914062 305.335938 82.445312 302.859375 L 83.34375 298.660156 C 83.6875 297.054688 84.980469 295.828125 86.597656 295.566406 L 98.796875 293.589844 C 101.214844 293.199219 103.410156 295.066406 103.410156 297.515625 Z M 103.410156 303.695312 " fill-opacity="1" fill-rule="nonzero"/><g clip-path="url(#89ae207c4f)"><path fill="#a6a6a6" d="M 339.296875 33.121094 C 319.578125 33.121094 303.589844 49.105469 303.589844 68.824219 C 303.589844 91.109375 324.722656 122.636719 334.472656 136.003906 C 336.863281 139.277344 341.726562 139.277344 344.121094 136.003906 C 353.871094 122.636719 375 91.109375 375 68.824219 C 375 49.105469 359.015625 33.121094 339.296875 33.121094 Z M 339.476562 85.945312 C 329.921875 85.945312 322.175781 78.203125 322.175781 68.648438 C 322.175781 59.09375 329.921875 51.347656 339.476562 51.347656 C 349.027344 51.347656 356.773438 59.09375 356.773438 68.648438 C 356.773438 78.203125 349.027344 85.945312 339.476562 85.945312 Z M 339.476562 85.945312 " fill-opacity="1" fill-rule="nonzero"/></g><path fill="#a6a6a6" d="M 149.230469 299.0625 L 139.710938 299.0625 C 136.027344 299.0625 133.046875 302.046875 133.046875 305.730469 C 133.046875 309.410156 136.027344 312.394531 139.710938 312.394531 L 149.230469 312.394531 C 152.914062 312.394531 155.894531 309.410156 155.894531 305.730469 C 155.894531 302.046875 152.914062 299.0625 149.230469 299.0625 Z M 149.230469 299.0625 " fill-opacity="1" fill-rule="nonzero"/><path fill="#a6a6a6" d="M 159.753906 173.964844 C 162.8125 173.964844 165.574219 171.839844 166.257812 168.722656 C 166.828125 166.109375 167.695312 163.558594 168.835938 161.136719 C 170.398438 157.804688 168.96875 153.832031 165.636719 152.265625 C 162.300781 150.714844 158.335938 152.140625 156.769531 155.464844 C 155.210938 158.789062 154.019531 162.289062 153.234375 165.871094 C 152.445312 169.464844 154.722656 173.019531 158.320312 173.804688 C 158.800781 173.914062 159.277344 173.964844 159.753906 173.964844 Z M 159.753906 173.964844 " fill-opacity="1" fill-rule="nonzero"/><path fill="#a6a6a6" d="M 305.300781 126.734375 L 295.777344 126.734375 C 292.097656 126.734375 289.113281 129.71875 289.113281 133.402344 C 289.113281 137.082031 292.097656 140.066406 295.777344 140.066406 L 305.300781 140.066406 C 308.980469 140.066406 311.964844 137.082031 311.964844 133.402344 C 311.964844 129.71875 308.980469 126.734375 305.300781 126.734375 Z M 305.300781 126.734375 " fill-opacity="1" fill-rule="nonzero"/><path fill="#a6a6a6" d="M 182.289062 144.785156 C 183.3125 144.785156 184.351562 144.550781 185.328125 144.046875 C 187.714844 142.824219 190.234375 141.867188 192.824219 141.199219 C 196.390625 140.28125 198.535156 136.652344 197.617188 133.085938 C 196.699219 129.519531 193.058594 127.355469 189.503906 128.292969 C 185.957031 129.203125 182.507812 130.515625 179.242188 132.191406 C 175.964844 133.871094 174.671875 137.886719 176.355469 141.164062 C 177.535156 143.464844 179.867188 144.785156 182.289062 144.785156 Z M 182.289062 144.785156 " fill-opacity="1" fill-rule="nonzero"/><path fill="#a6a6a6" d="M 257.695312 140.066406 L 267.214844 140.066406 C 270.894531 140.066406 273.878906 137.082031 273.878906 133.402344 C 273.878906 129.71875 270.894531 126.734375 267.214844 126.734375 L 257.695312 126.734375 C 254.015625 126.734375 251.03125 129.71875 251.03125 133.402344 C 251.03125 137.082031 254.015625 140.066406 257.695312 140.066406 Z M 257.695312 140.066406 " fill-opacity="1" fill-rule="nonzero"/><path fill="#a6a6a6" d="M 219.609375 140.066406 L 229.132812 140.066406 C 232.8125 140.066406 235.796875 137.082031 235.796875 133.402344 C 235.796875 129.71875 232.8125 126.734375 229.132812 126.734375 L 219.609375 126.734375 C 215.929688 126.734375 212.945312 129.71875 212.945312 133.402344 C 212.945312 137.082031 215.929688 140.066406 219.609375 140.066406 Z M 219.609375 140.066406 " fill-opacity="1" fill-rule="nonzero"/><path fill="#a6a6a6" d="M 225.402344 299.0625 L 215.878906 299.0625 C 212.199219 299.0625 209.214844 302.046875 209.214844 305.730469 C 209.214844 309.410156 212.199219 312.394531 215.878906 312.394531 L 225.402344 312.394531 C 229.082031 312.394531 232.066406 309.410156 232.066406 305.730469 C 232.066406 302.046875 229.082031 299.0625 225.402344 299.0625 Z M 225.402344 299.0625 " fill-opacity="1" fill-rule="nonzero"/><path fill="#a6a6a6" d="M 262.136719 298.375 C 259.816406 298.828125 257.4375 299.0625 255.078125 299.0625 L 253.964844 299.0625 C 250.28125 299.0625 247.300781 302.046875 247.300781 305.730469 C 247.300781 309.410156 250.28125 312.394531 253.964844 312.394531 L 255.078125 312.394531 C 258.304688 312.394531 261.546875 312.074219 264.722656 311.449219 C 268.332031 310.734375 270.683594 307.230469 269.96875 303.617188 C 269.253906 300.011719 265.761719 297.652344 262.136719 298.375 Z M 262.136719 298.375 " fill-opacity="1" fill-rule="nonzero"/><path fill="#a6a6a6" d="M 279.5625 219.382812 C 276.367188 217.566406 272.976562 216.105469 269.484375 215.042969 C 265.960938 213.953125 262.238281 215.953125 261.164062 219.472656 C 260.09375 222.992188 262.078125 226.714844 265.597656 227.789062 C 268.148438 228.570312 270.628906 229.640625 272.972656 230.96875 C 274.011719 231.558594 275.144531 231.84375 276.261719 231.84375 C 278.582031 231.84375 280.832031 230.628906 282.058594 228.472656 C 283.878906 225.273438 282.761719 221.203125 279.5625 219.382812 Z M 279.5625 219.382812 " fill-opacity="1" fill-rule="nonzero"/><path fill="#a6a6a6" d="M 296.203125 277.097656 C 292.96875 275.34375 288.921875 276.550781 287.175781 279.792969 C 285.898438 282.152344 284.363281 284.382812 282.605469 286.414062 C 280.195312 289.199219 280.5 293.40625 283.28125 295.8125 C 284.542969 296.90625 286.09375 297.441406 287.640625 297.441406 C 289.507812 297.441406 291.363281 296.660156 292.683594 295.132812 C 295.078125 292.367188 297.167969 289.335938 298.902344 286.125 C 300.652344 282.882812 299.441406 278.84375 296.203125 277.097656 Z M 296.203125 277.097656 " fill-opacity="1" fill-rule="nonzero"/><path fill="#a6a6a6" d="M 239.167969 212.898438 L 229.644531 212.898438 C 225.964844 212.898438 222.980469 215.882812 222.980469 219.566406 C 222.980469 223.246094 225.964844 226.230469 229.644531 226.230469 L 239.167969 226.230469 C 242.847656 226.230469 245.832031 223.246094 245.832031 219.566406 C 245.832031 215.882812 242.847656 212.898438 239.167969 212.898438 Z M 239.167969 212.898438 " fill-opacity="1" fill-rule="nonzero"/><path fill="#a6a6a6" d="M 292.300781 240.019531 C 288.902344 241.4375 287.296875 245.339844 288.714844 248.738281 C 289.746094 251.214844 290.503906 253.804688 290.960938 256.429688 C 291.523438 259.675781 294.339844 261.960938 297.519531 261.960938 C 297.898438 261.960938 298.28125 261.925781 298.667969 261.855469 C 302.292969 261.230469 304.722656 257.78125 304.09375 254.152344 C 303.464844 250.542969 302.433594 246.992188 301.015625 243.605469 C 299.601562 240.210938 295.699219 238.613281 292.300781 240.019531 Z M 292.300781 240.019531 " fill-opacity="1" fill-rule="nonzero"/><path fill="#a6a6a6" d="M 187.316406 299.0625 L 177.796875 299.0625 C 174.113281 299.0625 171.132812 302.046875 171.132812 305.730469 C 171.132812 309.410156 174.113281 312.394531 177.796875 312.394531 L 187.316406 312.394531 C 191 312.394531 193.980469 309.410156 193.980469 305.730469 C 193.980469 302.046875 191 299.0625 187.316406 299.0625 Z M 187.316406 299.0625 " fill-opacity="1" fill-rule="nonzero"/><path fill="#a6a6a6" d="M 201.199219 212.898438 C 198.519531 212.851562 195.839844 212.507812 193.242188 211.871094 C 189.671875 210.988281 186.0625 213.191406 185.1875 216.765625 C 184.316406 220.347656 186.507812 223.949219 190.085938 224.824219 C 193.640625 225.6875 197.300781 226.160156 200.96875 226.222656 C 201.011719 226.226562 201.046875 226.226562 201.085938 226.226562 C 204.710938 226.226562 207.6875 223.316406 207.75 219.675781 C 207.8125 215.996094 204.878906 212.957031 201.199219 212.898438 Z M 201.199219 212.898438 " fill-opacity="1" fill-rule="nonzero"/><path fill="#a6a6a6" d="M 173.300781 199.03125 C 171.625 196.925781 170.191406 194.632812 169.023438 192.230469 C 167.421875 188.910156 163.4375 187.527344 160.121094 189.128906 C 156.808594 190.730469 155.421875 194.722656 157.027344 198.03125 C 158.613281 201.316406 160.574219 204.4375 162.851562 207.316406 C 164.167969 208.976562 166.113281 209.839844 168.082031 209.839844 C 169.53125 209.839844 170.992188 209.367188 172.214844 208.394531 C 175.101562 206.109375 175.585938 201.917969 173.300781 199.03125 Z M 173.300781 199.03125 " fill-opacity="1" fill-rule="nonzero"/></svg>