<svg xmlns="http://www.w3.org/2000/svg" xmlns:xlink="http://www.w3.org/1999/xlink" width="170" zoomAndPan="magnify" viewBox="0 0 127.5 44.999999" height="60" preserveAspectRatio="xMidYMid meet" version="1.0"><defs><clipPath id="2b886f61a9"><path d="M 13 24 L 33 24 L 33 44.21875 L 13 44.21875 Z M 13 24 " clip-rule="nonzero"/></clipPath><clipPath id="6af26b8c9e"><path d="M 0 1.636719 L 127 1.636719 L 127 38 L 0 38 Z M 0 1.636719 " clip-rule="nonzero"/></clipPath><clipPath id="5911b74832"><path d="M 90 24 L 110 24 L 110 44.21875 L 90 44.21875 Z M 90 24 " clip-rule="nonzero"/></clipPath></defs><g clip-path="url(#2b886f61a9)"><path fill="#7a7a7a" d="M 22.917969 24.996094 C 17.542969 24.996094 13.175781 29.367188 13.175781 34.738281 C 13.175781 35.769531 13.335938 36.753906 13.632812 37.683594 C 14.890625 41.621094 18.574219 44.480469 22.925781 44.480469 C 27.277344 44.480469 30.960938 41.621094 32.21875 37.683594 C 32.519531 36.753906 32.679688 35.761719 32.679688 34.738281 C 32.660156 29.375 28.289062 24.996094 22.917969 24.996094 Z M 22.917969 39.0625 C 21.679688 39.0625 20.554688 38.535156 19.765625 37.691406 C 19.042969 36.921875 18.605469 35.882812 18.605469 34.746094 C 18.605469 32.367188 20.535156 30.433594 22.917969 30.433594 C 25.300781 30.433594 27.230469 32.367188 27.230469 34.746094 C 27.230469 35.890625 26.789062 36.921875 26.066406 37.691406 C 25.28125 38.535156 24.15625 39.0625 22.917969 39.0625 Z M 22.917969 39.0625 " fill-opacity="1" fill-rule="nonzero"/></g><g clip-path="url(#6af26b8c9e)"><path fill="#a6a6a6" d="M 126.410156 26.910156 C 126.4375 26.394531 125.660156 25.859375 125.6875 25.324219 C 126 18.703125 125.960938 11.269531 123.703125 11.652344 C 120.933594 12.121094 112.488281 12.234375 112.488281 12.234375 L 92.933594 3.402344 C 90.386719 2.246094 87.617188 1.65625 84.816406 1.65625 L 64.421875 1.65625 C 58.457031 1.65625 52.613281 3.390625 47.625 6.65625 C 43.117188 9.609375 38.886719 12.769531 34.375 15.722656 C 34.019531 15.742188 33.71875 15.273438 33.355469 15.300781 C 28.628906 15.636719 22.871094 16.59375 16.992188 17.832031 C 12.320312 18.816406 8.09375 20.007812 4.339844 21.253906 C 3.714844 21.460938 3.160156 21.796875 2.691406 22.230469 C 1.773438 23.074219 1.226562 24.273438 1.226562 25.566406 L 1.226562 26.523438 C 1.226562 26.757812 1.199219 26.992188 1.132812 27.21875 C 1.105469 27.332031 1.070312 27.441406 1.023438 27.554688 C 0.890625 27.882812 0.695312 28.183594 0.441406 28.4375 C 0.160156 28.71875 0 29.101562 0 29.507812 L 0 34.898438 C 0 35.609375 0.441406 37.289062 1.132812 37.4375 L 7.265625 37.703125 L 12.238281 37.703125 C 11.972656 36.765625 11.832031 35.769531 11.832031 34.757812 C 11.832031 28.644531 16.804688 23.671875 22.917969 23.671875 C 29.03125 23.671875 34 28.644531 34 34.757812 C 34 35.78125 33.859375 36.765625 33.597656 37.703125 L 89.410156 37.703125 C 89.148438 36.765625 89.007812 35.769531 89.007812 34.757812 C 89.007812 28.644531 93.976562 23.671875 100.089844 23.671875 C 106.203125 23.671875 111.171875 28.644531 111.171875 34.757812 C 111.171875 35.78125 111.03125 36.765625 110.769531 37.703125 L 112.101562 37.703125 C 112.101562 37.703125 125.8125 37.597656 125.8125 36.792969 C 125.820312 36.78125 127 33.433594 126.410156 26.910156 Z M 2.972656 35.171875 C 2.074219 35.171875 1.339844 34.175781 1.339844 32.957031 C 1.339844 31.738281 2.074219 30.742188 2.972656 30.742188 C 3.871094 30.742188 4.605469 31.738281 4.605469 32.957031 C 4.605469 34.175781 3.871094 35.171875 2.972656 35.171875 Z M 10.652344 23.65625 C 10.539062 24.433594 10.210938 25.175781 9.714844 25.839844 C 9.152344 26.589844 8.609375 26.898438 7.566406 27.078125 C 6.5625 27.246094 5.570312 27.359375 4.59375 27.441406 C 3.84375 27.5 3.246094 27.535156 2.523438 27.566406 C 2.523438 27.347656 2.53125 27.113281 2.542969 26.878906 L 2.578125 25.925781 C 2.625 24.621094 3.394531 23.53125 4.59375 22.726562 C 5.230469 22.34375 5.984375 22.097656 6.453125 21.96875 C 7.59375 21.648438 8.335938 21.453125 9.238281 21.433594 C 9.855469 21.421875 10.847656 22.34375 10.652344 23.65625 Z M 48.964844 7.855469 C 53.570312 4.46875 58.914062 2.6875 64.417969 2.6875 L 69.324219 2.6875 L 65.734375 14.128906 L 42.035156 14.644531 L 41.632812 13.238281 Z M 74.40625 33.265625 L 71.273438 33.304688 L 68.144531 33.332031 L 61.886719 33.351562 L 55.632812 33.332031 L 52.5 33.304688 L 50.9375 33.285156 L 49.371094 33.265625 C 45.195312 33.210938 41.023438 33.125 36.851562 32.957031 C 41.023438 32.796875 45.195312 32.703125 49.371094 32.648438 L 50.9375 32.628906 L 52.5 32.609375 L 55.632812 32.582031 L 61.886719 32.5625 L 68.144531 32.582031 L 71.273438 32.609375 L 74.40625 32.648438 C 78.578125 32.703125 82.75 32.789062 86.925781 32.957031 C 82.75 33.125 78.578125 33.210938 74.40625 33.265625 Z M 94.03125 13.519531 L 69.839844 14.042969 L 71.742188 2.6875 L 84.824219 2.6875 C 87.289062 2.6875 89.679688 3.269531 91.933594 4.402344 L 95.46875 6.195312 C 95.484375 6.203125 95.523438 6.222656 95.5625 6.242188 Z M 103.324219 13.3125 L 97.164062 13.445312 L 97.511719 7.367188 C 99.265625 8.390625 101.816406 9.878906 103.898438 11.097656 C 104.9375 11.707031 104.523438 13.292969 103.324219 13.3125 Z M 121.890625 21.835938 L 121.890625 17.503906 C 121.890625 17.054688 122.257812 16.699219 122.699219 16.699219 L 124.058594 16.699219 C 124.480469 16.699219 124.828125 17.015625 124.863281 17.429688 C 124.921875 18.066406 124.96875 18.761719 124.96875 19.492188 C 124.976562 20.355469 124.929688 21.160156 124.863281 21.902344 C 124.828125 22.3125 124.480469 22.640625 124.058594 22.640625 L 122.699219 22.640625 C 122.246094 22.652344 121.890625 22.285156 121.890625 21.835938 Z M 124 33.902344 C 123.101562 33.902344 122.371094 32.910156 122.371094 31.691406 C 122.371094 30.472656 123.101562 29.476562 124 29.476562 C 124.902344 29.476562 125.632812 30.472656 125.632812 31.691406 C 125.632812 32.917969 124.902344 33.902344 124 33.902344 Z M 124 33.902344 " fill-opacity="1" fill-rule="nonzero"/></g><g clip-path="url(#5911b74832)"><path fill="#7a7a7a" d="M 100.097656 24.996094 C 94.726562 24.996094 90.355469 29.367188 90.355469 34.738281 C 90.355469 35.769531 90.515625 36.753906 90.816406 37.683594 C 92.074219 41.621094 95.757812 44.480469 100.109375 44.480469 C 104.460938 44.480469 108.144531 41.621094 109.402344 37.683594 C 109.703125 36.753906 109.859375 35.761719 109.859375 34.738281 C 109.84375 29.375 105.472656 24.996094 100.097656 24.996094 Z M 103.242188 37.691406 C 102.453125 38.535156 101.335938 39.0625 100.089844 39.0625 C 98.851562 39.0625 97.726562 38.535156 96.9375 37.691406 C 96.21875 36.921875 95.777344 35.882812 95.777344 34.746094 C 95.777344 32.367188 97.707031 30.433594 100.089844 30.433594 C 102.472656 30.433594 104.402344 32.367188 104.402344 34.746094 C 104.414062 35.890625 103.960938 36.921875 103.242188 37.691406 Z M 103.242188 37.691406 " fill-opacity="1" fill-rule="nonzero"/></g></svg>