<svg xmlns="http://www.w3.org/2000/svg" xmlns:xlink="http://www.w3.org/1999/xlink" width="170" zoomAndPan="magnify" viewBox="0 0 127.5 44.999999" height="60" preserveAspectRatio="xMidYMid meet" version="1.0"><defs><clipPath id="58a149f371"><path d="M 13 24 L 33 24 L 33 43.652344 L 13 43.652344 Z M 13 24 " clip-rule="nonzero"/></clipPath><clipPath id="6000fa2dc6"><path d="M 0 1.070312 L 127 1.070312 L 127 38 L 0 38 Z M 0 1.070312 " clip-rule="nonzero"/></clipPath><clipPath id="abd11f5f0c"><path d="M 90 24 L 110 24 L 110 43.652344 L 90 43.652344 Z M 90 24 " clip-rule="nonzero"/></clipPath></defs><g clip-path="url(#58a149f371)"><path fill="#7a7a7a" d="M 22.917969 24.425781 C 17.542969 24.425781 13.175781 28.796875 13.175781 34.167969 C 13.175781 35.199219 13.335938 36.1875 13.632812 37.113281 C 14.890625 41.050781 18.574219 43.914062 22.925781 43.914062 C 27.277344 43.914062 30.960938 41.050781 32.21875 37.113281 C 32.519531 36.1875 32.679688 35.191406 32.679688 34.167969 C 32.660156 28.804688 28.289062 24.425781 22.917969 24.425781 Z M 22.917969 38.492188 C 21.679688 38.492188 20.554688 37.96875 19.765625 37.125 C 19.042969 36.355469 18.605469 35.3125 18.605469 34.179688 C 18.605469 31.796875 20.535156 29.867188 22.917969 29.867188 C 25.300781 29.867188 27.230469 31.796875 27.230469 34.179688 C 27.230469 35.324219 26.789062 36.355469 26.066406 37.125 C 25.28125 37.96875 24.15625 38.492188 22.917969 38.492188 Z M 22.917969 38.492188 " fill-opacity="1" fill-rule="nonzero"/></g><g clip-path="url(#6000fa2dc6)"><path fill="#047e43" d="M 126.410156 26.339844 C 126.4375 25.824219 125.660156 25.289062 125.6875 24.753906 C 126 18.136719 125.960938 10.699219 123.703125 11.082031 C 120.933594 11.550781 112.488281 11.664062 112.488281 11.664062 L 92.933594 2.832031 C 90.386719 1.679688 87.617188 1.085938 84.816406 1.085938 L 64.421875 1.085938 C 58.457031 1.085938 52.613281 2.824219 47.625 6.085938 C 43.117188 9.039062 38.886719 12.199219 34.375 15.152344 C 34.019531 15.171875 33.71875 14.703125 33.355469 14.730469 C 28.628906 15.070312 22.871094 16.023438 16.992188 17.261719 C 12.320312 18.246094 8.09375 19.4375 4.339844 20.6875 C 3.714844 20.890625 3.160156 21.230469 2.691406 21.660156 C 1.773438 22.503906 1.226562 23.703125 1.226562 25 L 1.226562 25.957031 C 1.226562 26.191406 1.199219 26.425781 1.132812 26.648438 C 1.105469 26.761719 1.070312 26.875 1.023438 26.988281 C 0.890625 27.316406 0.695312 27.613281 0.441406 27.867188 C 0.160156 28.148438 0 28.535156 0 28.9375 L 0 34.328125 C 0 35.042969 0.441406 36.71875 1.132812 36.871094 L 7.265625 37.132812 L 12.238281 37.132812 C 11.972656 36.195312 11.832031 35.199219 11.832031 34.1875 C 11.832031 28.074219 16.804688 23.105469 22.917969 23.105469 C 29.03125 23.105469 34 28.074219 34 34.1875 C 34 35.210938 33.859375 36.195312 33.597656 37.132812 L 89.410156 37.132812 C 89.148438 36.195312 89.007812 35.199219 89.007812 34.1875 C 89.007812 28.074219 93.976562 23.105469 100.089844 23.105469 C 106.203125 23.105469 111.171875 28.074219 111.171875 34.1875 C 111.171875 35.210938 111.03125 36.195312 110.769531 37.132812 L 112.101562 37.132812 C 112.101562 37.132812 125.8125 37.03125 125.8125 36.222656 C 125.820312 36.214844 127 32.867188 126.410156 26.339844 Z M 2.972656 34.601562 C 2.074219 34.601562 1.339844 33.605469 1.339844 32.386719 C 1.339844 31.167969 2.074219 30.175781 2.972656 30.175781 C 3.871094 30.175781 4.605469 31.167969 4.605469 32.386719 C 4.605469 33.605469 3.871094 34.601562 2.972656 34.601562 Z M 10.652344 23.085938 C 10.539062 23.863281 10.210938 24.605469 9.714844 25.269531 C 9.152344 26.019531 8.609375 26.332031 7.566406 26.507812 C 6.5625 26.675781 5.570312 26.789062 4.59375 26.875 C 3.84375 26.929688 3.246094 26.96875 2.523438 26.996094 C 2.523438 26.78125 2.53125 26.546875 2.542969 26.3125 L 2.578125 25.355469 C 2.625 24.050781 3.394531 22.964844 4.59375 22.15625 C 5.230469 21.773438 5.984375 21.53125 6.453125 21.398438 C 7.59375 21.078125 8.335938 20.882812 9.238281 20.863281 C 9.855469 20.855469 10.847656 21.773438 10.652344 23.085938 Z M 48.964844 7.285156 C 53.570312 3.902344 58.914062 2.117188 64.417969 2.117188 L 69.324219 2.117188 L 65.734375 13.558594 L 42.035156 14.074219 L 41.632812 12.667969 Z M 74.40625 32.699219 L 72.839844 32.714844 L 71.273438 32.734375 L 68.144531 32.761719 L 61.886719 32.78125 L 55.632812 32.761719 L 52.5 32.734375 L 50.9375 32.714844 L 49.371094 32.699219 C 45.195312 32.640625 41.023438 32.558594 36.851562 32.386719 C 41.023438 32.230469 45.195312 32.136719 49.371094 32.078125 L 50.9375 32.058594 L 52.5 32.042969 L 55.632812 32.011719 L 61.886719 31.996094 L 68.144531 32.011719 L 71.273438 32.042969 L 72.839844 32.058594 L 74.40625 32.078125 C 78.578125 32.136719 82.75 32.21875 86.925781 32.386719 C 82.75 32.558594 78.578125 32.640625 74.40625 32.699219 Z M 94.03125 12.949219 L 69.839844 13.476562 L 71.742188 2.117188 L 84.824219 2.117188 C 87.289062 2.117188 89.679688 2.699219 91.933594 3.835938 L 95.46875 5.625 C 95.484375 5.636719 95.523438 5.652344 95.5625 5.671875 Z M 103.324219 12.742188 L 97.164062 12.875 L 97.511719 6.796875 C 99.265625 7.820312 101.816406 9.3125 103.898438 10.53125 C 104.9375 11.140625 104.523438 12.722656 103.324219 12.742188 Z M 121.890625 21.265625 L 121.890625 16.933594 C 121.890625 16.484375 122.257812 16.128906 122.699219 16.128906 L 124.058594 16.128906 C 124.480469 16.128906 124.828125 16.445312 124.863281 16.859375 C 124.921875 17.496094 124.96875 18.191406 124.96875 18.921875 C 124.976562 19.785156 124.929688 20.589844 124.863281 21.332031 C 124.828125 21.746094 124.480469 22.074219 124.058594 22.074219 L 122.699219 22.074219 C 122.246094 22.082031 121.890625 21.71875 121.890625 21.265625 Z M 124 33.335938 C 123.101562 33.335938 122.371094 32.339844 122.371094 31.121094 C 122.371094 29.902344 123.101562 28.910156 124 28.910156 C 124.902344 28.910156 125.632812 29.902344 125.632812 31.121094 C 125.632812 32.351562 124.902344 33.335938 124 33.335938 Z M 124 33.335938 " fill-opacity="1" fill-rule="nonzero"/></g><g clip-path="url(#abd11f5f0c)"><path fill="#7a7a7a" d="M 100.097656 24.425781 C 94.726562 24.425781 90.355469 28.796875 90.355469 34.167969 C 90.355469 35.199219 90.515625 36.1875 90.816406 37.113281 C 92.074219 41.050781 95.757812 43.914062 100.109375 43.914062 C 104.460938 43.914062 108.144531 41.050781 109.402344 37.113281 C 109.703125 36.1875 109.859375 35.191406 109.859375 34.167969 C 109.84375 28.804688 105.472656 24.425781 100.097656 24.425781 Z M 103.242188 37.125 C 102.453125 37.96875 101.335938 38.492188 100.089844 38.492188 C 98.851562 38.492188 97.726562 37.96875 96.9375 37.125 C 96.21875 36.355469 95.777344 35.3125 95.777344 34.179688 C 95.777344 31.796875 97.707031 29.867188 100.089844 29.867188 C 102.472656 29.867188 104.402344 31.796875 104.402344 34.179688 C 104.414062 35.324219 103.960938 36.355469 103.242188 37.125 Z M 103.242188 37.125 " fill-opacity="1" fill-rule="nonzero"/></g></svg>