<svg xmlns="http://www.w3.org/2000/svg" xmlns:xlink="http://www.w3.org/1999/xlink" width="500" zoomAndPan="magnify" viewBox="0 0 375 374.999991" height="500" preserveAspectRatio="xMidYMid meet" version="1.0"><path fill="#0f6523" d="M 274.542969 267.417969 C 274.542969 267.820312 274.503906 268.222656 274.425781 268.617188 C 274.347656 269.011719 274.234375 269.398438 274.078125 269.769531 C 273.925781 270.144531 273.738281 270.496094 273.515625 270.832031 C 273.292969 271.167969 273.039062 271.480469 272.757812 271.765625 C 272.472656 272.050781 272.164062 272.304688 271.832031 272.53125 C 271.5 272.753906 271.144531 272.941406 270.777344 273.097656 C 270.40625 273.253906 270.023438 273.367188 269.628906 273.449219 C 269.238281 273.527344 268.839844 273.566406 268.441406 273.566406 C 268.039062 273.566406 267.640625 273.527344 267.25 273.449219 C 266.855469 273.367188 266.472656 273.253906 266.105469 273.097656 C 265.734375 272.941406 265.382812 272.753906 265.046875 272.53125 C 264.714844 272.304688 264.40625 272.050781 264.125 271.765625 C 263.839844 271.480469 263.585938 271.167969 263.363281 270.832031 C 263.140625 270.496094 262.953125 270.144531 262.800781 269.769531 C 262.648438 269.398438 262.53125 269.011719 262.453125 268.617188 C 262.375 268.222656 262.335938 267.820312 262.335938 267.417969 C 262.335938 267.015625 262.375 266.613281 262.453125 266.21875 C 262.53125 265.824219 262.648438 265.4375 262.800781 265.066406 C 262.953125 264.691406 263.140625 264.339844 263.363281 264.003906 C 263.585938 263.667969 263.839844 263.355469 264.125 263.070312 C 264.40625 262.785156 264.714844 262.53125 265.046875 262.304688 C 265.382812 262.082031 265.734375 261.894531 266.105469 261.738281 C 266.472656 261.582031 266.855469 261.46875 267.25 261.386719 C 267.640625 261.308594 268.039062 261.269531 268.441406 261.269531 C 268.839844 261.269531 269.238281 261.308594 269.628906 261.386719 C 270.023438 261.46875 270.40625 261.582031 270.777344 261.738281 C 271.144531 261.894531 271.5 262.082031 271.832031 262.304688 C 272.164062 262.53125 272.472656 262.785156 272.757812 263.070312 C 273.039062 263.355469 273.292969 263.667969 273.515625 264.003906 C 273.738281 264.339844 273.925781 264.691406 274.078125 265.066406 C 274.234375 265.4375 274.347656 265.824219 274.425781 266.21875 C 274.503906 266.613281 274.542969 267.015625 274.542969 267.417969 Z M 274.542969 267.417969 " fill-opacity="1" fill-rule="nonzero"/><path fill="#0f6523" d="M 326.566406 78.722656 L 326.566406 70.695312 L 314.351562 70.695312 L 314.351562 74.777344 C 316.992188 75.414062 319.570312 76.371094 322.027344 77.597656 Z M 326.566406 78.722656 " fill-opacity="1" fill-rule="nonzero"/><path fill="#0f6523" d="M 246.296875 255.703125 C 251.152344 247.566406 257.550781 242.140625 263.980469 240.382812 L 317.25 82.191406 C 313.699219 80.734375 309.933594 79.929688 306.191406 79.921875 C 303.574219 79.921875 298.707031 79.898438 294.457031 82.492188 C 289.878906 85.292969 288.042969 89.957031 285.417969 97.335938 C 281.570312 108.148438 277.867188 118.925781 274.414062 129.367188 C 269.710938 144.179688 263.128906 157.765625 254.855469 169.722656 C 251.53125 174.535156 248.628906 178.09375 246.070312 181.234375 C 241.421875 186.933594 238.066406 191.054688 235.289062 198.886719 C 231.382812 209.921875 230.703125 220.871094 233.265625 231.441406 C 235.902344 242.328125 241.371094 250.324219 246.296875 255.703125 Z M 246.296875 255.703125 " fill-opacity="1" fill-rule="nonzero"/><path fill="#0f6523" d="M 268.441406 245.902344 C 260.226562 245.902344 249.40625 256.480469 245.480469 274.484375 C 245.460938 274.640625 245.425781 274.792969 245.382812 274.9375 C 244.484375 279.210938 243.976562 283.882812 243.976562 288.933594 C 243.976562 303.179688 237.214844 324.46875 218.164062 337.574219 C 203.34375 347.769531 188.015625 346.289062 157.484375 343.34375 C 150.417969 342.660156 142.503906 341.894531 133.5625 341.179688 C 108.625 339.179688 82.972656 338.144531 57.3125 338.113281 C 55.613281 338.113281 54.238281 336.734375 54.242188 335.039062 C 54.246094 333.339844 55.617188 331.96875 57.316406 331.96875 C 83.140625 331.996094 108.957031 333.035156 134.054688 335.050781 C 143.03125 335.773438 150.976562 336.539062 158.070312 337.226562 C 187.125 340.027344 201.703125 341.4375 214.679688 332.507812 C 230.667969 321.511719 237.828125 302.699219 237.828125 288.933594 C 237.828125 285.3125 238.082031 281.824219 238.546875 278.503906 C 223.371094 283.003906 207.746094 285.476562 192.023438 285.859375 C 165.691406 286.476562 138.75 281.101562 114.207031 270.226562 C 110.007812 268.644531 87.28125 261.039062 68.132812 273.09375 C 49.445312 284.859375 46.707031 306.886719 45.070312 320.042969 C 42.199219 343.121094 49.253906 362.425781 56.066406 375 L 278.640625 375 C 283.660156 362.9375 287.445312 350.34375 289.902344 337.535156 C 292.949219 321.628906 293.960938 305.34375 292.910156 289.132812 C 292.902344 262.273438 278.65625 245.902344 268.441406 245.902344 Z M 268.441406 279.714844 C 261.683594 279.714844 256.1875 274.199219 256.1875 267.417969 C 256.1875 260.636719 261.683594 255.121094 268.441406 255.121094 C 275.195312 255.121094 280.691406 260.636719 280.691406 267.417969 C 280.691406 274.199219 275.199219 279.714844 268.441406 279.714844 Z M 268.441406 279.714844 " fill-opacity="1" fill-rule="nonzero"/><path fill="#0f6523" d="M 270.613281 239.941406 C 276.851562 240.785156 283.207031 245.21875 288.335938 252.339844 L 329.21875 85.714844 L 323.0625 84.1875 Z M 270.613281 239.941406 " fill-opacity="1" fill-rule="nonzero"/><path fill="#0f6523" d="M 327.230469 0 C 310.003906 0 295.992188 14.011719 295.992188 31.234375 L 295.992188 48.84375 C 295.992188 57.503906 303.039062 64.550781 311.699219 64.550781 L 332.683594 64.550781 L 332.683594 5.453125 C 332.683594 2.445312 330.234375 0 327.230469 0 Z M 327.230469 0 " fill-opacity="1" fill-rule="nonzero"/></svg>