<svg xmlns="http://www.w3.org/2000/svg" xmlns:xlink="http://www.w3.org/1999/xlink" width="500" zoomAndPan="magnify" viewBox="0 0 375 374.999991" height="500" preserveAspectRatio="xMidYMid meet" version="1.0"><defs><clipPath id="c9353ead84"><path d="M 70.78125 261 L 100 261 L 100 342 L 70.78125 342 Z M 70.78125 261 " clip-rule="nonzero"/></clipPath><clipPath id="9bccbf5680"><path d="M 70.78125 0 L 100 0 L 100 80 L 70.78125 80 Z M 70.78125 0 " clip-rule="nonzero"/></clipPath><clipPath id="a7a7887bb6"><path d="M 275 0 L 304.03125 0 L 304.03125 80 L 275 80 Z M 275 0 " clip-rule="nonzero"/></clipPath><clipPath id="6f242b19ac"><path d="M 275 261 L 304.03125 261 L 304.03125 342 L 275 342 Z M 275 261 " clip-rule="nonzero"/></clipPath></defs><g clip-path="url(#c9353ead84)"><path fill="#a6a6a6" d="M 70.917969 264.707031 L 70.917969 337.886719 C 72.371094 339.152344 77.503906 341.1875 85.085938 341.1875 C 92.671875 341.1875 97.800781 339.15625 99.257812 337.886719 L 99.257812 264.707031 C 97.800781 263.441406 92.671875 261.410156 85.085938 261.410156 C 77.503906 261.410156 72.371094 263.441406 70.917969 264.707031 Z M 70.917969 264.707031 " fill-opacity="1" fill-rule="nonzero"/></g><path fill="#a6a6a6" d="M 248.640625 362.070312 L 126.371094 362.070312 C 122.804688 362.070312 119.90625 364.96875 119.90625 368.535156 C 119.90625 372.097656 122.804688 375 126.371094 375 L 248.640625 375 C 252.207031 375 255.109375 372.097656 255.109375 368.535156 C 255.109375 364.96875 252.207031 362.070312 248.640625 362.070312 Z M 248.640625 362.070312 " fill-opacity="1" fill-rule="nonzero"/><g clip-path="url(#9bccbf5680)"><path fill="#a6a6a6" d="M 70.917969 3.300781 L 70.917969 76.476562 C 72.371094 77.742188 77.503906 79.777344 85.085938 79.777344 C 92.671875 79.777344 97.800781 77.746094 99.257812 76.476562 L 99.257812 3.300781 C 97.804688 2.03125 92.671875 0 85.085938 0 C 77.503906 0 72.371094 2.03125 70.917969 3.300781 Z M 70.917969 3.300781 " fill-opacity="1" fill-rule="nonzero"/></g><path fill="#a6a6a6" d="M 129.71875 199.335938 C 131.757812 202.710938 132.835938 206.585938 132.835938 210.53125 L 132.835938 281.902344 L 145.765625 281.902344 L 145.765625 210.53125 C 145.765625 204.230469 144.046875 198.046875 140.789062 192.652344 L 128.238281 171.859375 C 126.199219 168.480469 125.121094 164.609375 125.121094 160.660156 L 125.121094 59.285156 L 112.1875 59.285156 L 112.1875 160.660156 C 112.1875 166.964844 113.910156 173.148438 117.167969 178.542969 Z M 129.71875 199.335938 " fill-opacity="1" fill-rule="nonzero"/><path fill="#a6a6a6" d="M 138.050781 98.492188 L 236.960938 98.492188 L 236.960938 111.425781 L 138.050781 111.425781 Z M 138.050781 98.492188 " fill-opacity="1" fill-rule="nonzero"/><path fill="#a6a6a6" d="M 223.976562 184.605469 L 151.035156 184.605469 L 156.882812 197.535156 L 218.128906 197.535156 Z M 223.976562 184.605469 " fill-opacity="1" fill-rule="nonzero"/><path fill="#a6a6a6" d="M 112.1875 33.421875 L 262.824219 33.421875 L 262.824219 46.355469 L 112.1875 46.355469 Z M 112.1875 33.421875 " fill-opacity="1" fill-rule="nonzero"/><path fill="#a6a6a6" d="M 132.835938 320.695312 L 145.765625 320.695312 L 145.765625 349.136719 L 132.835938 349.136719 Z M 132.835938 320.695312 " fill-opacity="1" fill-rule="nonzero"/><g clip-path="url(#a7a7887bb6)"><path fill="#a6a6a6" d="M 289.925781 0 C 282.339844 0 277.210938 2.03125 275.753906 3.300781 L 275.753906 76.476562 C 277.210938 77.742188 282.339844 79.777344 289.925781 79.777344 C 297.511719 79.777344 302.640625 77.746094 304.09375 76.476562 L 304.09375 3.300781 C 302.640625 2.03125 297.511719 0 289.925781 0 Z M 289.925781 0 " fill-opacity="1" fill-rule="nonzero"/></g><path fill="#a6a6a6" d="M 249.894531 160.660156 C 249.894531 164.609375 248.816406 168.480469 246.777344 171.859375 L 234.222656 192.652344 C 230.96875 198.046875 229.246094 204.230469 229.246094 210.535156 L 229.246094 281.902344 L 242.175781 281.902344 L 242.175781 210.535156 C 242.175781 206.585938 243.253906 202.714844 245.292969 199.335938 L 257.84375 178.542969 C 261.101562 173.148438 262.824219 166.964844 262.824219 160.660156 L 262.824219 59.285156 L 249.894531 59.285156 Z M 249.894531 160.660156 " fill-opacity="1" fill-rule="nonzero"/><g clip-path="url(#6f242b19ac)"><path fill="#a6a6a6" d="M 275.753906 264.707031 L 275.753906 337.886719 C 277.210938 339.152344 282.339844 341.1875 289.925781 341.1875 C 297.511719 341.1875 302.640625 339.15625 304.09375 337.886719 L 304.09375 264.707031 C 302.640625 263.441406 297.511719 261.410156 289.925781 261.410156 C 282.339844 261.410156 277.210938 263.441406 275.753906 264.707031 Z M 275.753906 264.707031 " fill-opacity="1" fill-rule="nonzero"/></g><path fill="#a6a6a6" d="M 112.1875 294.832031 L 262.824219 294.832031 L 262.824219 307.765625 L 112.1875 307.765625 Z M 112.1875 294.832031 " fill-opacity="1" fill-rule="nonzero"/><path fill="#a6a6a6" d="M 229.246094 320.695312 L 242.175781 320.695312 L 242.175781 349.136719 L 229.246094 349.136719 Z M 229.246094 320.695312 " fill-opacity="1" fill-rule="nonzero"/></svg>