<svg xmlns="http://www.w3.org/2000/svg" xmlns:xlink="http://www.w3.org/1999/xlink" width="500" zoomAndPan="magnify" viewBox="0 0 375 374.999991" height="500" preserveAspectRatio="xMidYMid meet" version="1.0"><defs><clipPath id="82fac4ce2f"><path d="M 2.53125 4 L 370.78125 4 L 370.78125 373.5 L 2.53125 373.5 Z M 2.53125 4 " clip-rule="nonzero"/></clipPath></defs><path fill="#0f6523" d="M 57.796875 305.742188 L 57.796875 293.460938 L 45.515625 293.460938 L 45.515625 305.742188 C 45.515625 306.34375 45.546875 306.949219 45.605469 307.546875 C 45.664062 308.148438 45.75 308.746094 45.871094 309.335938 C 45.988281 309.929688 46.132812 310.511719 46.308594 311.089844 C 46.484375 311.667969 46.6875 312.234375 46.917969 312.792969 C 47.148438 313.347656 47.40625 313.894531 47.691406 314.425781 C 47.976562 314.957031 48.285156 315.476562 48.621094 315.976562 C 48.957031 316.476562 49.3125 316.960938 49.695312 317.429688 C 50.078125 317.894531 50.484375 318.339844 50.910156 318.769531 C 51.335938 319.195312 51.785156 319.601562 52.25 319.984375 C 52.71875 320.363281 53.203125 320.722656 53.703125 321.058594 C 54.203125 321.394531 54.722656 321.703125 55.253906 321.988281 C 55.785156 322.273438 56.332031 322.53125 56.886719 322.761719 C 57.445312 322.992188 58.011719 323.195312 58.589844 323.371094 C 59.167969 323.546875 59.75 323.691406 60.34375 323.808594 C 60.933594 323.929688 61.53125 324.015625 62.132812 324.074219 C 62.730469 324.132812 63.335938 324.164062 63.9375 324.164062 L 88.5 324.164062 L 88.5 311.882812 L 63.9375 311.882812 C 63.535156 311.882812 63.136719 311.84375 62.738281 311.765625 C 62.34375 311.6875 61.960938 311.570312 61.585938 311.414062 C 61.214844 311.261719 60.859375 311.070312 60.527344 310.847656 C 60.191406 310.625 59.878906 310.371094 59.59375 310.085938 C 59.308594 309.800781 59.054688 309.488281 58.832031 309.152344 C 58.609375 308.820312 58.417969 308.464844 58.265625 308.09375 C 58.109375 307.71875 57.992188 307.335938 57.914062 306.941406 C 57.835938 306.542969 57.796875 306.144531 57.796875 305.742188 Z M 57.796875 305.742188 " fill-opacity="1" fill-rule="nonzero"/><path fill="#0f6523" d="M 291.140625 305.742188 C 291.140625 306.144531 291.101562 306.542969 291.023438 306.941406 C 290.945312 307.335938 290.828125 307.71875 290.671875 308.09375 C 290.519531 308.464844 290.328125 308.820312 290.105469 309.152344 C 289.882812 309.488281 289.628906 309.800781 289.34375 310.085938 C 289.058594 310.371094 288.746094 310.625 288.410156 310.847656 C 288.078125 311.070312 287.722656 311.261719 287.351562 311.414062 C 286.976562 311.570312 286.59375 311.6875 286.199219 311.765625 C 285.800781 311.84375 285.402344 311.882812 285 311.882812 L 260.4375 311.882812 L 260.4375 324.164062 L 285 324.164062 C 285.601562 324.164062 286.207031 324.132812 286.804688 324.074219 C 287.40625 324.015625 288.003906 323.929688 288.59375 323.808594 C 289.1875 323.691406 289.769531 323.546875 290.347656 323.371094 C 290.925781 323.195312 291.492188 322.992188 292.050781 322.761719 C 292.605469 322.53125 293.152344 322.273438 293.683594 321.988281 C 294.214844 321.703125 294.734375 321.394531 295.234375 321.058594 C 295.734375 320.722656 296.21875 320.363281 296.6875 319.984375 C 297.152344 319.601562 297.597656 319.195312 298.027344 318.769531 C 298.453125 318.339844 298.859375 317.894531 299.242188 317.429688 C 299.625 316.960938 299.980469 316.476562 300.316406 315.976562 C 300.652344 315.476562 300.960938 314.957031 301.246094 314.425781 C 301.53125 313.894531 301.789062 313.347656 302.019531 312.792969 C 302.25 312.234375 302.453125 311.667969 302.628906 311.089844 C 302.804688 310.511719 302.949219 309.929688 303.066406 309.335938 C 303.1875 308.746094 303.273438 308.148438 303.332031 307.546875 C 303.390625 306.949219 303.421875 306.34375 303.421875 305.742188 L 303.421875 293.460938 L 291.140625 293.460938 Z M 291.140625 305.742188 " fill-opacity="1" fill-rule="nonzero"/><g clip-path="url(#82fac4ce2f)"><path fill="#0f6523" d="M 370.96875 96.960938 C 370.972656 95.355469 370.933594 93.75 370.855469 92.144531 C 370.773438 90.539062 370.652344 88.941406 370.488281 87.34375 C 370.324219 85.742188 370.117188 84.152344 369.871094 82.566406 C 369.621094 80.976562 369.332031 79.398438 369.003906 77.824219 C 368.671875 76.253906 368.300781 74.691406 367.890625 73.140625 C 367.476562 71.585938 367.027344 70.046875 366.535156 68.515625 C 366.042969 66.988281 365.507812 65.472656 364.9375 63.972656 C 364.367188 62.46875 363.753906 60.984375 363.105469 59.515625 C 362.457031 58.046875 361.769531 56.597656 361.042969 55.164062 C 360.320312 53.730469 359.554688 52.316406 358.757812 50.921875 C 357.957031 49.53125 357.121094 48.160156 356.25 46.808594 C 355.378906 45.460938 354.476562 44.132812 353.535156 42.832031 C 352.59375 41.527344 351.621094 40.25 350.613281 39 C 349.605469 37.75 348.566406 36.523438 347.496094 35.328125 C 346.425781 34.132812 345.324219 32.964844 344.191406 31.824219 C 343.058594 30.683594 341.898438 29.574219 340.707031 28.496094 C 339.515625 27.417969 338.296875 26.371094 337.054688 25.355469 C 335.808594 24.34375 334.539062 23.359375 333.242188 22.414062 C 331.945312 21.464844 330.625 20.550781 329.28125 19.671875 C 327.9375 18.792969 326.570312 17.949219 325.179688 17.140625 C 323.792969 16.332031 322.382812 15.5625 320.957031 14.828125 C 319.527344 14.09375 318.078125 13.398438 316.613281 12.738281 C 315.148438 12.082031 313.667969 11.460938 312.171875 10.878906 C 310.671875 10.300781 309.160156 9.757812 307.636719 9.253906 C 306.109375 8.753906 304.570312 8.292969 303.023438 7.871094 C 301.472656 7.449219 299.910156 7.070312 298.34375 6.730469 C 296.773438 6.390625 295.195312 6.089844 293.609375 5.832031 C 292.023438 5.578125 290.433594 5.359375 288.835938 5.1875 C 287.238281 5.011719 285.636719 4.882812 284.035156 4.789062 C 282.429688 4.699219 280.824219 4.652344 279.21875 4.644531 C 277.613281 4.640625 276.007812 4.675781 274.402344 4.753906 C 272.800781 4.832031 271.199219 4.949219 269.601562 5.113281 C 268 5.273438 266.410156 5.476562 264.820312 5.722656 C 263.234375 5.964844 261.652344 6.253906 260.082031 6.578125 C 258.507812 6.90625 256.945312 7.277344 255.390625 7.683594 C 253.839844 8.09375 252.296875 8.542969 250.769531 9.035156 C 249.238281 9.523438 247.722656 10.054688 246.21875 10.621094 C 244.71875 11.191406 243.230469 11.800781 241.761719 12.445312 C 240.292969 13.09375 238.839844 13.777344 237.40625 14.5 C 235.96875 15.222656 234.554688 15.984375 233.160156 16.78125 C 231.765625 17.578125 230.394531 18.410156 229.042969 19.28125 C 227.691406 20.148438 226.363281 21.050781 225.058594 21.988281 C 223.757812 22.929688 222.476562 23.898438 221.226562 24.90625 C 219.972656 25.910156 218.746094 26.945312 217.546875 28.015625 C 216.347656 29.085938 215.179688 30.183594 214.039062 31.316406 C 212.898438 32.445312 211.785156 33.605469 210.707031 34.792969 C 209.625 35.984375 208.574219 37.199219 207.558594 38.441406 C 206.542969 39.683594 205.558594 40.953125 204.609375 42.25 C 203.65625 43.542969 202.742188 44.863281 201.859375 46.207031 C 200.980469 47.546875 200.132812 48.914062 199.324219 50.300781 C 198.511719 51.6875 197.738281 53.09375 197.003906 54.523438 C 196.265625 55.949219 195.566406 57.394531 194.90625 58.859375 C 194.246094 60.324219 193.625 61.804688 193.039062 63.300781 C 192.457031 64.796875 191.914062 66.308594 191.410156 67.832031 C 190.90625 69.359375 190.441406 70.894531 190.015625 72.445312 C 189.59375 73.992188 189.210938 75.554688 188.867188 77.121094 C 188.523438 78.691406 188.222656 80.269531 187.964844 81.855469 C 187.703125 83.4375 187.484375 85.03125 187.308594 86.625 C 187.132812 88.222656 186.996094 89.824219 186.90625 91.425781 C 186.8125 93.03125 186.761719 94.636719 186.75 96.242188 C 186.742188 97.847656 186.777344 99.453125 186.851562 101.058594 C 186.925781 102.660156 187.042969 104.261719 187.203125 105.863281 C 187.359375 107.460938 187.5625 109.054688 187.804688 110.640625 C 188.046875 112.230469 188.328125 113.808594 188.652344 115.382812 L 110.976562 115.382812 C 108.957031 115.386719 106.960938 115.582031 104.984375 115.976562 C 103.003906 116.367188 101.085938 116.949219 99.21875 117.71875 C 97.355469 118.488281 95.585938 119.429688 93.90625 120.546875 C 92.222656 121.660156 90.667969 122.929688 89.238281 124.347656 L 71.859375 141.726562 C 71.234375 142.367188 70.765625 143.101562 70.445312 143.9375 L 58.164062 176.789062 L 51.65625 176.789062 L 51.65625 164.507812 C 51.652344 163.703125 51.574219 162.902344 51.414062 162.113281 C 51.253906 161.324219 51.019531 160.558594 50.710938 159.8125 C 50.402344 159.070312 50.023438 158.363281 49.574219 157.695312 C 49.128906 157.023438 48.617188 156.402344 48.046875 155.835938 C 47.480469 155.265625 46.859375 154.753906 46.1875 154.308594 C 45.519531 153.859375 44.8125 153.480469 44.070312 153.171875 C 43.324219 152.863281 42.558594 152.628906 41.769531 152.46875 C 40.980469 152.308594 40.179688 152.230469 39.375 152.226562 L 20.953125 152.226562 C 20.351562 152.226562 19.75 152.257812 19.148438 152.320312 C 18.550781 152.382812 17.953125 152.46875 17.363281 152.589844 C 16.773438 152.707031 16.1875 152.855469 15.613281 153.03125 C 15.035156 153.207031 14.46875 153.410156 13.910156 153.644531 C 13.355469 153.875 12.8125 154.132812 12.28125 154.417969 C 11.75 154.703125 11.234375 155.011719 10.730469 155.347656 C 10.230469 155.683594 9.746094 156.042969 9.28125 156.425781 C 8.816406 156.808594 8.371094 157.210938 7.941406 157.636719 C 7.515625 158.066406 7.113281 158.511719 6.730469 158.976562 C 6.347656 159.441406 5.988281 159.925781 5.652344 160.425781 C 5.316406 160.929688 5.007812 161.445312 4.722656 161.976562 C 4.4375 162.507812 4.179688 163.050781 3.949219 163.605469 C 3.714844 164.164062 3.511719 164.730469 3.335938 165.308594 C 3.160156 165.882812 3.011719 166.46875 2.894531 167.058594 C 2.777344 167.648438 2.6875 168.246094 2.625 168.84375 C 2.5625 169.445312 2.53125 170.046875 2.53125 170.648438 L 2.53125 176.789062 C 2.535156 177.59375 2.613281 178.390625 2.773438 179.183594 C 2.933594 179.972656 3.167969 180.738281 3.476562 181.484375 C 3.785156 182.226562 4.164062 182.933594 4.613281 183.601562 C 5.058594 184.273438 5.570312 184.894531 6.140625 185.460938 C 6.707031 186.03125 7.328125 186.542969 8 186.988281 C 8.667969 187.4375 9.375 187.816406 10.117188 188.125 C 10.863281 188.433594 11.628906 188.667969 12.417969 188.828125 C 13.207031 188.988281 14.007812 189.066406 14.8125 189.070312 L 53.558594 189.070312 L 52.640625 191.464844 L 27.832031 211.300781 C 26.757812 212.164062 25.792969 213.136719 24.941406 214.21875 C 24.085938 215.300781 23.359375 216.460938 22.765625 217.707031 C 22.171875 218.949219 21.71875 220.242188 21.414062 221.585938 C 21.109375 222.929688 20.953125 224.289062 20.953125 225.667969 L 20.953125 305.742188 C 20.953125 308.519531 21.222656 311.269531 21.761719 313.992188 C 22.296875 316.71875 23.09375 319.363281 24.144531 321.933594 C 25.199219 324.503906 26.488281 326.945312 28.019531 329.265625 C 29.546875 331.582031 31.285156 333.730469 33.234375 335.707031 L 33.234375 354.867188 C 33.234375 355.46875 33.265625 356.070312 33.328125 356.671875 C 33.390625 357.269531 33.476562 357.867188 33.597656 358.457031 C 33.714844 359.046875 33.863281 359.632812 34.039062 360.207031 C 34.214844 360.785156 34.417969 361.351562 34.652344 361.910156 C 34.882812 362.464844 35.140625 363.007812 35.425781 363.539062 C 35.710938 364.070312 36.019531 364.585938 36.355469 365.089844 C 36.691406 365.589844 37.050781 366.074219 37.433594 366.539062 C 37.816406 367.003906 38.21875 367.449219 38.644531 367.878906 C 39.074219 368.304688 39.519531 368.707031 39.984375 369.089844 C 40.449219 369.472656 40.933594 369.832031 41.433594 370.167969 C 41.9375 370.503906 42.453125 370.8125 42.984375 371.097656 C 43.515625 371.382812 44.058594 371.640625 44.613281 371.871094 C 45.171875 372.105469 45.738281 372.308594 46.316406 372.484375 C 46.890625 372.660156 47.476562 372.808594 48.066406 372.925781 C 48.65625 373.042969 49.253906 373.132812 49.851562 373.195312 C 50.453125 373.257812 51.054688 373.289062 51.65625 373.289062 L 76.21875 373.289062 C 76.820312 373.289062 77.421875 373.257812 78.023438 373.195312 C 78.621094 373.132812 79.21875 373.042969 79.808594 372.925781 C 80.398438 372.808594 80.984375 372.660156 81.558594 372.484375 C 82.136719 372.308594 82.703125 372.105469 83.261719 371.871094 C 83.816406 371.640625 84.359375 371.382812 84.890625 371.097656 C 85.421875 370.8125 85.9375 370.503906 86.441406 370.167969 C 86.941406 369.832031 87.425781 369.472656 87.890625 369.089844 C 88.355469 368.707031 88.800781 368.304688 89.230469 367.878906 C 89.65625 367.449219 90.058594 367.003906 90.441406 366.539062 C 90.824219 366.074219 91.183594 365.589844 91.519531 365.089844 C 91.855469 364.585938 92.164062 364.070312 92.449219 363.539062 C 92.734375 363.007812 92.992188 362.464844 93.222656 361.910156 C 93.457031 361.351562 93.660156 360.785156 93.835938 360.207031 C 94.011719 359.632812 94.160156 359.046875 94.277344 358.457031 C 94.398438 357.867188 94.484375 357.269531 94.546875 356.671875 C 94.609375 356.070312 94.640625 355.46875 94.640625 354.867188 L 94.640625 348.726562 L 97.464844 348.726562 C 98.480469 348.726562 99.484375 348.601562 100.46875 348.351562 C 101.453125 348.105469 102.394531 347.738281 103.289062 347.257812 C 104.183594 346.773438 105.007812 346.191406 105.757812 345.503906 C 106.507812 344.816406 107.160156 344.050781 107.71875 343.199219 L 112.265625 336.445312 L 236.671875 336.445312 L 241.21875 343.261719 C 241.78125 344.101562 242.441406 344.863281 243.191406 345.542969 C 243.945312 346.222656 244.769531 346.800781 245.660156 347.277344 C 246.554688 347.753906 247.496094 348.113281 248.476562 348.359375 C 249.460938 348.605469 250.457031 348.726562 251.472656 348.726562 L 254.296875 348.726562 L 254.296875 354.867188 C 254.296875 355.46875 254.328125 356.070312 254.390625 356.671875 C 254.453125 357.269531 254.539062 357.867188 254.660156 358.457031 C 254.777344 359.046875 254.925781 359.632812 255.101562 360.207031 C 255.277344 360.785156 255.480469 361.351562 255.714844 361.910156 C 255.945312 362.464844 256.203125 363.007812 256.488281 363.539062 C 256.773438 364.070312 257.082031 364.585938 257.417969 365.089844 C 257.753906 365.589844 258.113281 366.074219 258.496094 366.539062 C 258.878906 367.003906 259.28125 367.449219 259.707031 367.878906 C 260.136719 368.304688 260.582031 368.707031 261.046875 369.089844 C 261.511719 369.472656 261.996094 369.832031 262.496094 370.167969 C 263 370.503906 263.515625 370.8125 264.046875 371.097656 C 264.578125 371.382812 265.121094 371.640625 265.675781 371.871094 C 266.234375 372.105469 266.800781 372.308594 267.378906 372.484375 C 267.953125 372.660156 268.539062 372.808594 269.128906 372.925781 C 269.71875 373.042969 270.316406 373.132812 270.914062 373.195312 C 271.515625 373.257812 272.117188 373.289062 272.71875 373.289062 L 297.28125 373.289062 C 297.882812 373.289062 298.484375 373.257812 299.085938 373.195312 C 299.683594 373.132812 300.28125 373.042969 300.871094 372.925781 C 301.460938 372.808594 302.046875 372.660156 302.621094 372.484375 C 303.199219 372.308594 303.765625 372.105469 304.324219 371.871094 C 304.878906 371.640625 305.421875 371.382812 305.953125 371.097656 C 306.484375 370.8125 307 370.503906 307.503906 370.167969 C 308.003906 369.832031 308.488281 369.472656 308.953125 369.089844 C 309.417969 368.707031 309.863281 368.304688 310.292969 367.878906 C 310.71875 367.449219 311.121094 367.003906 311.503906 366.539062 C 311.886719 366.074219 312.246094 365.589844 312.582031 365.089844 C 312.917969 364.585938 313.226562 364.070312 313.511719 363.539062 C 313.796875 363.007812 314.054688 362.464844 314.285156 361.910156 C 314.519531 361.351562 314.722656 360.785156 314.898438 360.207031 C 315.074219 359.632812 315.222656 359.046875 315.339844 358.457031 C 315.457031 357.867188 315.546875 357.269531 315.609375 356.671875 C 315.671875 356.070312 315.703125 355.46875 315.703125 354.867188 L 315.703125 335.707031 C 317.648438 333.726562 319.386719 331.578125 320.914062 329.261719 C 322.441406 326.941406 323.730469 324.5 324.785156 321.929688 C 325.835938 319.363281 326.632812 316.714844 327.171875 313.992188 C 327.710938 311.269531 327.980469 308.519531 327.984375 305.742188 L 327.984375 225.667969 C 327.984375 224.285156 327.828125 222.921875 327.519531 221.578125 C 327.210938 220.230469 326.757812 218.933594 326.15625 217.691406 C 325.554688 216.445312 324.824219 215.285156 323.960938 214.207031 C 323.097656 213.128906 322.125 212.160156 321.046875 211.300781 L 296.296875 191.464844 L 295.378906 189.070312 L 334.125 189.070312 C 334.929688 189.066406 335.726562 188.988281 336.519531 188.828125 C 337.308594 188.667969 338.074219 188.433594 338.820312 188.125 C 339.5625 187.816406 340.269531 187.4375 340.9375 186.988281 C 341.609375 186.542969 342.230469 186.03125 342.796875 185.460938 C 343.367188 184.894531 343.878906 184.273438 344.324219 183.601562 C 344.773438 182.933594 345.152344 182.226562 345.460938 181.484375 C 345.769531 180.738281 346.003906 179.972656 346.164062 179.183594 C 346.324219 178.390625 346.402344 177.59375 346.40625 176.789062 L 346.40625 170.648438 C 346.359375 167.496094 345.5625 164.550781 344.011719 161.804688 C 346.140625 159.683594 348.15625 157.460938 350.066406 155.140625 C 351.976562 152.820312 353.765625 150.414062 355.441406 147.917969 C 357.113281 145.421875 358.660156 142.847656 360.078125 140.199219 C 361.5 137.550781 362.785156 134.839844 363.9375 132.066406 C 365.09375 129.289062 366.109375 126.464844 366.984375 123.589844 C 367.859375 120.714844 368.59375 117.804688 369.183594 114.859375 C 369.773438 111.914062 370.21875 108.945312 370.515625 105.953125 C 370.8125 102.964844 370.964844 99.964844 370.96875 96.960938 Z M 39.375 176.789062 L 14.8125 176.789062 L 14.8125 170.648438 C 14.8125 170.246094 14.851562 169.847656 14.929688 169.449219 C 15.007812 169.054688 15.125 168.671875 15.28125 168.296875 C 15.433594 167.925781 15.625 167.570312 15.847656 167.238281 C 16.070312 166.902344 16.324219 166.589844 16.609375 166.304688 C 16.894531 166.019531 17.207031 165.765625 17.542969 165.542969 C 17.875 165.320312 18.230469 165.128906 18.601562 164.976562 C 18.976562 164.820312 19.359375 164.703125 19.753906 164.625 C 20.152344 164.546875 20.550781 164.507812 20.953125 164.507812 L 39.375 164.507812 Z M 97.957031 133.066406 C 99.683594 131.339844 101.671875 130.007812 103.929688 129.070312 C 106.183594 128.136719 108.53125 127.667969 110.976562 127.664062 L 192.09375 127.664062 C 193.578125 131.894531 195.378906 135.988281 197.496094 139.945312 L 91.019531 139.945312 Z M 80.457031 152.226562 L 205.417969 152.226562 C 207.546875 155.074219 209.832031 157.785156 212.273438 160.367188 C 214.714844 162.945312 217.300781 165.378906 220.023438 167.65625 C 222.75 169.9375 225.597656 172.054688 228.566406 174.003906 C 231.539062 175.953125 234.613281 177.726562 237.789062 179.320312 C 240.964844 180.914062 244.222656 182.316406 247.5625 183.53125 C 250.902344 184.746094 254.296875 185.765625 257.757812 186.585938 C 261.214844 187.40625 264.707031 188.027344 268.234375 188.441406 C 271.765625 188.855469 275.304688 189.066406 278.859375 189.070312 C 279.964844 189.070312 281.070312 188.949219 282.238281 188.886719 L 282.296875 189.070312 L 66.640625 189.070312 Z M 59.945312 201.351562 L 288.992188 201.351562 L 294.027344 205.34375 L 277.445312 213.632812 C 271.058594 216.824219 264.433594 219.40625 257.570312 221.378906 C 250.707031 223.351562 243.71875 224.679688 236.613281 225.363281 C 232.855469 225.738281 229.089844 225.925781 225.3125 225.914062 L 123.625 225.914062 C 119.804688 225.933594 115.996094 225.726562 112.203125 225.300781 C 105.113281 224.632812 98.148438 223.320312 91.304688 221.359375 C 84.460938 219.394531 77.855469 216.820312 71.492188 213.632812 L 54.910156 205.34375 Z M 291.140625 220.511719 L 291.140625 234.265625 C 291.140625 234.976562 291.019531 235.667969 290.777344 236.339844 C 290.535156 237.007812 290.1875 237.617188 289.734375 238.167969 C 289.28125 238.714844 288.746094 239.171875 288.132812 239.535156 C 287.523438 239.898438 286.867188 240.148438 286.167969 240.28125 L 252.023438 247.097656 C 251.082031 247.292969 250.132812 247.410156 249.175781 247.453125 C 248.214844 247.492188 247.257812 247.460938 246.304688 247.351562 C 245.351562 247.246094 244.410156 247.0625 243.484375 246.808594 C 242.558594 246.550781 241.660156 246.226562 240.785156 245.828125 C 239.910156 245.429688 239.074219 244.96875 238.269531 244.4375 C 237.46875 243.910156 236.714844 243.320312 236.007812 242.671875 C 235.296875 242.023438 234.644531 241.324219 234.046875 240.574219 C 233.445312 239.824219 232.910156 239.03125 232.4375 238.195312 L 232.3125 238.011719 C 234.21875 237.886719 236.058594 237.765625 237.839844 237.582031 C 245.695312 236.824219 253.417969 235.355469 261.003906 233.175781 C 268.585938 231 275.910156 228.148438 282.972656 224.625 Z M 116.625 238.011719 L 116.5 238.195312 C 116.027344 239.03125 115.492188 239.824219 114.890625 240.574219 C 114.292969 241.324219 113.640625 242.023438 112.929688 242.671875 C 112.222656 243.320312 111.46875 243.910156 110.667969 244.4375 C 109.863281 244.96875 109.027344 245.429688 108.152344 245.828125 C 107.277344 246.226562 106.378906 246.550781 105.453125 246.808594 C 104.527344 247.0625 103.585938 247.246094 102.632812 247.351562 C 101.679688 247.460938 100.722656 247.492188 99.761719 247.453125 C 98.804688 247.410156 97.855469 247.292969 96.914062 247.097656 L 62.769531 240.28125 C 62.070312 240.148438 61.414062 239.898438 60.804688 239.535156 C 60.191406 239.171875 59.65625 238.714844 59.203125 238.167969 C 58.75 237.617188 58.402344 237.007812 58.160156 236.339844 C 57.917969 235.667969 57.796875 234.976562 57.796875 234.265625 L 57.796875 220.511719 L 65.964844 224.5625 C 72.996094 228.105469 80.296875 230.964844 87.863281 233.144531 C 95.429688 235.324219 103.136719 236.78125 110.976562 237.519531 C 112.816406 237.765625 114.71875 237.886719 116.625 238.011719 Z M 82.359375 354.867188 C 82.359375 355.269531 82.320312 355.667969 82.242188 356.066406 C 82.164062 356.460938 82.046875 356.84375 81.890625 357.21875 C 81.738281 357.589844 81.546875 357.945312 81.324219 358.277344 C 81.101562 358.613281 80.847656 358.925781 80.5625 359.210938 C 80.277344 359.496094 79.964844 359.75 79.628906 359.972656 C 79.296875 360.195312 78.941406 360.386719 78.570312 360.539062 C 78.195312 360.695312 77.8125 360.8125 77.417969 360.890625 C 77.019531 360.96875 76.621094 361.007812 76.21875 361.007812 L 51.65625 361.007812 C 51.253906 361.007812 50.855469 360.96875 50.457031 360.890625 C 50.0625 360.8125 49.679688 360.695312 49.304688 360.539062 C 48.933594 360.386719 48.578125 360.195312 48.246094 359.972656 C 47.910156 359.75 47.597656 359.496094 47.3125 359.210938 C 47.027344 358.925781 46.773438 358.613281 46.550781 358.277344 C 46.328125 357.945312 46.136719 357.589844 45.984375 357.21875 C 45.828125 356.84375 45.710938 356.460938 45.632812 356.066406 C 45.554688 355.667969 45.515625 355.269531 45.515625 354.867188 L 45.515625 344.550781 C 51.34375 347.324219 57.484375 348.714844 63.9375 348.726562 L 82.359375 348.726562 Z M 120.429688 324.164062 L 128.660156 311.882812 L 220.339844 311.945312 L 228.507812 324.164062 Z M 303.421875 354.867188 C 303.421875 355.269531 303.382812 355.667969 303.304688 356.066406 C 303.226562 356.460938 303.109375 356.84375 302.953125 357.21875 C 302.800781 357.589844 302.609375 357.945312 302.386719 358.277344 C 302.164062 358.613281 301.910156 358.925781 301.625 359.210938 C 301.339844 359.496094 301.027344 359.75 300.691406 359.972656 C 300.359375 360.195312 300.003906 360.386719 299.632812 360.539062 C 299.257812 360.695312 298.875 360.8125 298.480469 360.890625 C 298.082031 360.96875 297.683594 361.007812 297.28125 361.007812 L 272.71875 361.007812 C 272.316406 361.007812 271.917969 360.96875 271.519531 360.890625 C 271.125 360.8125 270.742188 360.695312 270.367188 360.539062 C 269.996094 360.386719 269.640625 360.195312 269.308594 359.972656 C 268.972656 359.75 268.660156 359.496094 268.375 359.210938 C 268.089844 358.925781 267.835938 358.613281 267.613281 358.277344 C 267.390625 357.945312 267.199219 357.589844 267.046875 357.21875 C 266.890625 356.84375 266.773438 356.460938 266.695312 356.066406 C 266.617188 355.667969 266.578125 355.269531 266.578125 354.867188 L 266.578125 348.726562 L 285 348.726562 C 291.453125 348.714844 297.59375 347.324219 303.421875 344.550781 Z M 315.703125 305.742188 C 315.699219 306.746094 315.648438 307.75 315.546875 308.75 C 315.445312 309.746094 315.292969 310.738281 315.09375 311.722656 C 314.894531 312.710938 314.648438 313.683594 314.355469 314.640625 C 314.0625 315.601562 313.722656 316.546875 313.335938 317.476562 C 312.949219 318.402344 312.519531 319.308594 312.046875 320.195312 C 311.570312 321.078125 311.054688 321.9375 310.496094 322.773438 C 309.9375 323.609375 309.335938 324.414062 308.699219 325.191406 C 308.0625 325.964844 307.386719 326.710938 306.679688 327.421875 C 305.96875 328.128906 305.222656 328.804688 304.449219 329.441406 C 303.671875 330.078125 302.867188 330.679688 302.03125 331.238281 C 301.195312 331.796875 300.335938 332.3125 299.453125 332.789062 C 298.566406 333.261719 297.660156 333.691406 296.734375 334.078125 C 295.804688 334.464844 294.859375 334.804688 293.898438 335.097656 C 292.941406 335.390625 291.96875 335.636719 290.980469 335.835938 C 289.996094 336.035156 289.003906 336.1875 288.007812 336.289062 C 287.007812 336.390625 286.003906 336.441406 285 336.445312 L 251.410156 336.445312 L 230.53125 305.066406 C 229.96875 304.226562 229.308594 303.464844 228.558594 302.785156 C 227.804688 302.105469 226.984375 301.527344 226.089844 301.050781 C 225.195312 300.574219 224.253906 300.214844 223.273438 299.96875 C 222.289062 299.722656 221.292969 299.601562 220.277344 299.601562 L 128.660156 299.601562 C 127.644531 299.601562 126.640625 299.726562 125.65625 299.976562 C 124.671875 300.222656 123.730469 300.589844 122.835938 301.070312 C 121.941406 301.554688 121.117188 302.136719 120.367188 302.824219 C 119.617188 303.511719 118.964844 304.277344 118.40625 305.128906 L 97.464844 336.445312 L 63.9375 336.445312 C 62.933594 336.441406 61.929688 336.386719 60.933594 336.285156 C 59.933594 336.183594 58.941406 336.035156 57.957031 335.835938 C 56.972656 335.636719 56 335.390625 55.039062 335.097656 C 54.078125 334.800781 53.132812 334.460938 52.207031 334.074219 C 51.28125 333.6875 50.375 333.257812 49.488281 332.785156 C 48.601562 332.308594 47.742188 331.792969 46.910156 331.234375 C 46.074219 330.675781 45.269531 330.078125 44.492188 329.4375 C 43.714844 328.800781 42.972656 328.128906 42.261719 327.417969 C 41.550781 326.707031 40.878906 325.964844 40.242188 325.1875 C 39.601562 324.410156 39.003906 323.605469 38.445312 322.769531 C 37.886719 321.9375 37.371094 321.078125 36.894531 320.191406 C 36.421875 319.304688 35.992188 318.398438 35.605469 317.472656 C 35.21875 316.546875 34.878906 315.601562 34.582031 314.640625 C 34.289062 313.679688 34.042969 312.707031 33.84375 311.722656 C 33.644531 310.738281 33.496094 309.746094 33.394531 308.746094 C 33.292969 307.75 33.238281 306.746094 33.234375 305.742188 L 33.234375 272.707031 C 84.015625 281.695312 135.1875 286.570312 186.75 287.320312 C 230.230469 287.007812 273.214844 282.238281 315.703125 273.011719 Z M 303.421875 234.265625 L 303.421875 214.371094 L 304.589844 213.816406 L 313.371094 220.878906 C 314.101562 221.457031 314.671875 222.167969 315.082031 223.007812 C 315.492188 223.847656 315.699219 224.734375 315.703125 225.667969 L 315.703125 260.484375 C 273.230469 269.863281 230.246094 274.710938 186.75 275.039062 C 135.175781 274.273438 84.003906 269.339844 33.234375 260.238281 L 33.234375 225.667969 C 33.242188 224.742188 33.441406 223.859375 33.839844 223.023438 C 34.238281 222.183594 34.792969 221.46875 35.507812 220.878906 L 44.347656 213.816406 L 45.515625 214.371094 L 45.515625 234.265625 C 45.519531 235.320312 45.609375 236.367188 45.792969 237.40625 C 45.976562 238.449219 46.242188 239.464844 46.601562 240.457031 C 46.957031 241.453125 47.394531 242.40625 47.914062 243.324219 C 48.4375 244.242188 49.03125 245.109375 49.699219 245.925781 C 50.371094 246.742188 51.101562 247.496094 51.902344 248.1875 C 52.699219 248.878906 53.550781 249.496094 54.457031 250.039062 C 55.359375 250.585938 56.304688 251.046875 57.289062 251.429688 C 58.269531 251.8125 59.28125 252.109375 60.316406 252.320312 L 94.457031 259.136719 C 96.480469 259.550781 98.527344 259.753906 100.597656 259.75 C 101.941406 259.75 103.277344 259.660156 104.609375 259.484375 C 105.941406 259.308594 107.257812 259.046875 108.554688 258.699219 C 109.851562 258.351562 111.121094 257.917969 112.359375 257.402344 C 113.601562 256.886719 114.800781 256.292969 115.964844 255.617188 C 117.125 254.945312 118.238281 254.195312 119.304688 253.378906 C 120.367188 252.558594 121.371094 251.671875 122.320312 250.71875 C 123.269531 249.765625 124.148438 248.753906 124.964844 247.6875 C 125.777344 246.617188 126.519531 245.5 127.1875 244.335938 L 130.6875 238.195312 L 218.25 238.195312 L 221.75 244.335938 C 222.417969 245.5 223.160156 246.617188 223.972656 247.6875 C 224.789062 248.753906 225.667969 249.765625 226.617188 250.71875 C 227.566406 251.671875 228.570312 252.558594 229.632812 253.378906 C 230.699219 254.195312 231.8125 254.945312 232.972656 255.617188 C 234.136719 256.292969 235.335938 256.886719 236.578125 257.402344 C 237.816406 257.917969 239.085938 258.351562 240.382812 258.699219 C 241.679688 259.046875 242.996094 259.308594 244.328125 259.484375 C 245.660156 259.660156 246.996094 259.75 248.339844 259.75 C 250.410156 259.753906 252.457031 259.550781 254.480469 259.136719 L 288.621094 252.320312 C 289.65625 252.109375 290.667969 251.8125 291.648438 251.429688 C 292.632812 251.046875 293.578125 250.585938 294.480469 250.039062 C 295.386719 249.496094 296.238281 248.878906 297.035156 248.1875 C 297.835938 247.496094 298.566406 246.742188 299.238281 245.925781 C 299.90625 245.109375 300.5 244.242188 301.023438 243.324219 C 301.542969 242.40625 301.980469 241.453125 302.335938 240.457031 C 302.695312 239.464844 302.960938 238.449219 303.144531 237.40625 C 303.328125 236.367188 303.417969 235.320312 303.421875 234.265625 Z M 334.125 176.789062 L 324.667969 176.789062 C 327.921875 174.886719 331.054688 172.796875 334.0625 170.527344 C 334.097656 170.558594 334.117188 170.601562 334.125 170.648438 Z M 331.730469 156.648438 C 330.679688 157.578125 329.609375 158.480469 328.511719 159.355469 C 327.414062 160.226562 326.296875 161.070312 325.15625 161.886719 C 324.015625 162.699219 322.851562 163.484375 321.667969 164.238281 C 320.488281 164.992188 319.285156 165.714844 318.066406 166.402344 C 316.84375 167.09375 315.605469 167.75 314.351562 168.375 C 313.097656 169 311.824219 169.589844 310.539062 170.148438 C 309.253906 170.707031 307.953125 171.230469 306.636719 171.71875 C 305.324219 172.207031 303.996094 172.660156 302.660156 173.082031 C 301.320312 173.5 299.972656 173.882812 298.617188 174.230469 C 297.257812 174.578125 295.890625 174.890625 294.515625 175.167969 C 293.140625 175.445312 291.761719 175.683594 290.375 175.886719 C 288.984375 176.089844 287.59375 176.253906 286.199219 176.386719 C 284.800781 176.515625 283.402344 176.609375 282.003906 176.664062 C 280.601562 176.71875 279.199219 176.738281 277.796875 176.722656 C 276.394531 176.703125 274.996094 176.648438 273.597656 176.554688 C 272.199219 176.464844 270.800781 176.335938 269.410156 176.171875 C 268.015625 176.003906 266.628906 175.800781 265.25 175.5625 C 263.867188 175.324219 262.492188 175.050781 261.125 174.738281 C 259.757812 174.429688 258.402344 174.082031 257.050781 173.699219 C 255.703125 173.316406 254.363281 172.898438 253.039062 172.445312 C 251.710938 171.992188 250.398438 171.503906 249.097656 170.980469 C 247.796875 170.457031 246.507812 169.902344 245.238281 169.3125 C 243.964844 168.722656 242.710938 168.097656 241.472656 167.441406 C 240.234375 166.785156 239.011719 166.09375 237.808594 165.375 C 236.605469 164.652344 235.425781 163.902344 234.261719 163.117188 C 233.097656 162.335938 231.957031 161.519531 230.835938 160.675781 C 229.71875 159.832031 228.621094 158.960938 227.546875 158.058594 C 226.472656 157.15625 225.421875 156.230469 224.398438 155.273438 C 223.375 154.316406 222.375 153.332031 221.402344 152.324219 C 220.429688 151.3125 219.484375 150.277344 218.566406 149.21875 C 217.644531 148.160156 216.757812 147.078125 215.894531 145.96875 C 215.035156 144.863281 214.203125 143.734375 213.398438 142.585938 C 211.070312 139.261719 209.011719 135.78125 207.214844 132.144531 C 205.421875 128.503906 203.914062 124.75 202.695312 120.882812 C 201.476562 117.011719 200.5625 113.070312 199.945312 109.0625 C 199.332031 105.050781 199.027344 101.019531 199.03125 96.960938 C 199.027344 95.300781 199.078125 93.644531 199.179688 91.988281 C 199.28125 90.332031 199.433594 88.679688 199.636719 87.03125 C 199.839844 85.386719 200.09375 83.746094 200.402344 82.113281 C 200.707031 80.484375 201.0625 78.863281 201.46875 77.253906 C 201.878906 75.648438 202.335938 74.050781 202.839844 72.472656 C 203.347656 70.890625 203.902344 69.328125 204.507812 67.78125 C 205.109375 66.238281 205.761719 64.710938 206.460938 63.207031 C 207.160156 61.703125 207.90625 60.21875 208.695312 58.761719 C 209.488281 57.304688 210.324219 55.871094 211.207031 54.464844 C 212.085938 53.058594 213.011719 51.679688 213.976562 50.332031 C 214.945312 48.984375 215.953125 47.664062 217 46.378906 C 218.050781 45.09375 219.136719 43.839844 220.265625 42.625 C 221.390625 41.40625 222.554688 40.222656 223.757812 39.078125 C 224.957031 37.933594 226.191406 36.824219 227.460938 35.757812 C 228.730469 34.6875 230.035156 33.660156 231.367188 32.671875 C 232.703125 31.6875 234.066406 30.742188 235.457031 29.839844 C 236.851562 28.9375 238.269531 28.078125 239.714844 27.265625 C 241.164062 26.453125 242.632812 25.683594 244.125 24.960938 C 245.621094 24.238281 247.136719 23.566406 248.671875 22.9375 C 250.207031 22.308594 251.761719 21.730469 253.335938 21.199219 C 254.90625 20.667969 256.496094 20.1875 258.097656 19.757812 C 259.699219 19.324219 261.3125 18.945312 262.941406 18.613281 C 264.566406 18.28125 266.203125 18.003906 267.84375 17.773438 C 269.488281 17.542969 271.136719 17.367188 272.792969 17.242188 C 274.445312 17.113281 276.105469 17.039062 277.761719 17.015625 C 279.421875 16.996094 281.082031 17.023438 282.738281 17.105469 C 284.394531 17.183594 286.050781 17.316406 287.699219 17.5 C 289.347656 17.683594 290.988281 17.917969 292.625 18.207031 C 294.257812 18.492188 295.882812 18.828125 297.496094 19.214844 C 299.109375 19.605469 300.710938 20.039062 302.296875 20.527344 C 303.882812 21.015625 305.453125 21.550781 307.003906 22.136719 C 308.558594 22.722656 310.09375 23.355469 311.605469 24.035156 C 313.117188 24.714844 314.609375 25.445312 316.078125 26.21875 C 317.546875 26.992188 318.988281 27.808594 320.40625 28.671875 C 321.824219 29.535156 323.210938 30.445312 324.570312 31.394531 C 325.933594 32.34375 327.261719 33.335938 328.558594 34.371094 C 329.859375 35.402344 331.125 36.476562 332.355469 37.585938 C 333.585938 38.699219 334.78125 39.847656 335.941406 41.035156 C 337.101562 42.222656 338.226562 43.445312 339.308594 44.699219 C 340.394531 45.957031 341.4375 47.246094 342.441406 48.566406 C 343.445312 49.890625 344.40625 51.242188 345.324219 52.621094 C 346.242188 54.003906 347.117188 55.414062 347.949219 56.851562 C 348.78125 58.285156 349.566406 59.746094 350.308594 61.230469 C 351.046875 62.71875 351.738281 64.222656 352.386719 65.753906 C 353.03125 67.28125 353.628906 68.828125 354.179688 70.394531 C 354.730469 71.960938 355.230469 73.542969 355.679688 75.136719 C 356.132812 76.734375 356.535156 78.34375 356.882812 79.964844 C 357.234375 81.589844 357.535156 83.21875 357.785156 84.859375 C 358.03125 86.5 358.230469 88.148438 358.375 89.800781 C 358.523438 91.453125 358.617188 93.109375 358.660156 94.769531 C 358.703125 96.429688 358.695312 98.085938 358.632812 99.746094 C 358.574219 101.402344 358.460938 103.058594 358.296875 104.710938 C 358.132812 106.359375 357.917969 108.007812 357.652344 109.644531 C 357.386719 111.28125 357.070312 112.910156 356.703125 114.527344 C 356.335938 116.148438 355.917969 117.75 355.449219 119.34375 C 354.980469 120.9375 354.464844 122.511719 353.898438 124.070312 C 353.332031 125.632812 352.71875 127.171875 352.054688 128.695312 C 351.394531 130.214844 350.683594 131.714844 349.929688 133.191406 C 349.171875 134.671875 348.371094 136.121094 347.527344 137.550781 C 346.679688 138.976562 345.789062 140.378906 344.855469 141.75 C 343.921875 143.121094 342.945312 144.460938 341.929688 145.773438 C 340.914062 147.085938 339.855469 148.363281 338.757812 149.609375 C 337.660156 150.851562 336.527344 152.0625 335.355469 153.238281 C 334.179688 154.410156 332.972656 155.546875 331.730469 156.648438 Z M 331.730469 156.648438 " fill-opacity="1" fill-rule="nonzero"/></g><path fill="#0f6523" d="M 340.265625 78.539062 L 327.984375 78.539062 C 327.171875 78.546875 326.386719 78.703125 325.632812 79.011719 C 324.878906 79.316406 324.210938 79.753906 323.625 80.320312 L 319.324219 84.679688 L 315.703125 84.679688 L 315.703125 72.398438 C 315.703125 71.996094 315.664062 71.597656 315.585938 71.199219 C 315.507812 70.804688 315.390625 70.421875 315.234375 70.046875 C 315.082031 69.675781 314.890625 69.320312 314.667969 68.988281 C 314.445312 68.652344 314.191406 68.339844 313.90625 68.054688 C 313.621094 67.769531 313.308594 67.515625 312.972656 67.292969 C 312.640625 67.070312 312.285156 66.878906 311.914062 66.726562 C 311.539062 66.570312 311.15625 66.453125 310.761719 66.375 C 310.363281 66.296875 309.964844 66.257812 309.5625 66.257812 L 301.089844 66.257812 L 296.605469 57.355469 C 296.355469 56.84375 296.035156 56.378906 295.65625 55.960938 C 295.273438 55.539062 294.839844 55.179688 294.355469 54.882812 C 293.875 54.582031 293.359375 54.359375 292.8125 54.203125 C 292.265625 54.050781 291.707031 53.972656 291.140625 53.976562 L 278.796875 53.976562 L 278.859375 47.835938 L 297.28125 47.835938 L 297.28125 35.554688 L 248.15625 35.554688 L 248.15625 47.835938 L 266.578125 47.835938 L 266.515625 53.976562 L 248.15625 53.976562 C 247.515625 53.980469 246.886719 54.082031 246.277344 54.28125 C 245.667969 54.480469 245.101562 54.765625 244.578125 55.140625 C 244.054688 55.511719 243.601562 55.957031 243.21875 56.472656 C 242.832031 56.984375 242.535156 57.546875 242.324219 58.152344 L 237.59375 72.398438 L 235.875 72.398438 C 235.472656 72.398438 235.074219 72.4375 234.675781 72.515625 C 234.28125 72.59375 233.898438 72.710938 233.523438 72.867188 C 233.152344 73.019531 232.796875 73.210938 232.464844 73.433594 C 232.128906 73.65625 231.816406 73.910156 231.53125 74.195312 C 231.246094 74.480469 230.992188 74.792969 230.769531 75.128906 C 230.546875 75.460938 230.355469 75.816406 230.203125 76.1875 C 230.046875 76.5625 229.929688 76.945312 229.851562 77.339844 C 229.773438 77.738281 229.734375 78.136719 229.734375 78.539062 L 229.734375 90.820312 L 223.59375 90.820312 L 223.59375 72.398438 L 211.3125 72.398438 L 211.3125 121.523438 L 223.59375 121.523438 L 223.59375 103.101562 L 229.734375 103.101562 L 229.734375 115.382812 C 229.734375 115.785156 229.773438 116.183594 229.851562 116.582031 C 229.929688 116.976562 230.046875 117.359375 230.203125 117.734375 C 230.355469 118.105469 230.546875 118.460938 230.769531 118.792969 C 230.992188 119.128906 231.246094 119.441406 231.53125 119.726562 C 231.816406 120.011719 232.128906 120.265625 232.464844 120.488281 C 232.796875 120.710938 233.152344 120.902344 233.523438 121.054688 C 233.898438 121.210938 234.28125 121.328125 234.675781 121.40625 C 235.074219 121.484375 235.472656 121.523438 235.875 121.523438 L 245.636719 121.523438 L 256.078125 132.023438 C 256.664062 132.589844 257.332031 133.027344 258.085938 133.332031 C 258.839844 133.640625 259.625 133.796875 260.4375 133.804688 L 309.5625 133.804688 C 309.964844 133.804688 310.363281 133.765625 310.761719 133.6875 C 311.15625 133.609375 311.539062 133.492188 311.914062 133.335938 C 312.285156 133.183594 312.640625 132.992188 312.972656 132.769531 C 313.308594 132.546875 313.621094 132.292969 313.90625 132.007812 C 314.191406 131.722656 314.445312 131.410156 314.667969 131.074219 C 314.890625 130.742188 315.082031 130.386719 315.234375 130.015625 C 315.390625 129.640625 315.507812 129.257812 315.585938 128.863281 C 315.664062 128.464844 315.703125 128.066406 315.703125 127.664062 L 315.703125 115.382812 L 319.324219 115.382812 L 323.625 119.742188 C 324.210938 120.308594 324.878906 120.746094 325.632812 121.050781 C 326.386719 121.359375 327.171875 121.515625 327.984375 121.523438 L 340.265625 121.523438 C 340.667969 121.523438 341.066406 121.484375 341.464844 121.40625 C 341.859375 121.328125 342.242188 121.210938 342.617188 121.054688 C 342.988281 120.902344 343.34375 120.710938 343.675781 120.488281 C 344.011719 120.265625 344.324219 120.011719 344.609375 119.726562 C 344.894531 119.441406 345.148438 119.128906 345.371094 118.792969 C 345.59375 118.460938 345.785156 118.105469 345.9375 117.734375 C 346.09375 117.359375 346.210938 116.976562 346.289062 116.582031 C 346.367188 116.183594 346.40625 115.785156 346.40625 115.382812 L 346.40625 84.679688 C 346.40625 84.277344 346.367188 83.878906 346.289062 83.480469 C 346.210938 83.085938 346.09375 82.703125 345.9375 82.328125 C 345.785156 81.957031 345.59375 81.601562 345.371094 81.269531 C 345.148438 80.933594 344.894531 80.621094 344.609375 80.335938 C 344.324219 80.050781 344.011719 79.796875 343.675781 79.574219 C 343.34375 79.351562 342.988281 79.160156 342.617188 79.007812 C 342.242188 78.851562 341.859375 78.734375 341.464844 78.65625 C 341.066406 78.578125 340.667969 78.539062 340.265625 78.539062 Z M 334.125 109.242188 L 330.503906 109.242188 L 326.203125 104.882812 C 325.617188 104.316406 324.949219 103.878906 324.195312 103.574219 C 323.441406 103.265625 322.65625 103.109375 321.84375 103.101562 L 309.5625 103.101562 C 309.160156 103.101562 308.761719 103.140625 308.363281 103.21875 C 307.96875 103.296875 307.585938 103.414062 307.210938 103.570312 C 306.839844 103.722656 306.484375 103.914062 306.152344 104.136719 C 305.816406 104.359375 305.503906 104.613281 305.21875 104.898438 C 304.933594 105.183594 304.679688 105.496094 304.457031 105.832031 C 304.234375 106.164062 304.042969 106.519531 303.890625 106.890625 C 303.734375 107.265625 303.617188 107.648438 303.539062 108.042969 C 303.460938 108.441406 303.421875 108.839844 303.421875 109.242188 L 303.421875 121.523438 L 262.957031 121.523438 L 252.515625 111.023438 C 251.929688 110.457031 251.261719 110.019531 250.507812 109.714844 C 249.753906 109.40625 248.96875 109.25 248.15625 109.242188 L 242.015625 109.242188 L 242.015625 84.679688 C 242.65625 84.675781 243.285156 84.574219 243.894531 84.375 C 244.503906 84.175781 245.070312 83.890625 245.59375 83.515625 C 246.117188 83.144531 246.570312 82.699219 246.953125 82.183594 C 247.339844 81.671875 247.636719 81.109375 247.847656 80.503906 L 252.578125 66.257812 L 287.332031 66.257812 L 291.816406 75.160156 C 292.066406 75.671875 292.386719 76.136719 292.765625 76.554688 C 293.148438 76.976562 293.582031 77.335938 294.066406 77.632812 C 294.546875 77.933594 295.0625 78.15625 295.609375 78.3125 C 296.15625 78.464844 296.714844 78.542969 297.28125 78.539062 L 303.421875 78.539062 L 303.421875 90.820312 C 303.421875 91.222656 303.460938 91.621094 303.539062 92.019531 C 303.617188 92.414062 303.734375 92.796875 303.890625 93.171875 C 304.042969 93.542969 304.234375 93.898438 304.457031 94.230469 C 304.679688 94.566406 304.933594 94.878906 305.21875 95.164062 C 305.503906 95.449219 305.816406 95.703125 306.152344 95.925781 C 306.484375 96.148438 306.839844 96.339844 307.210938 96.492188 C 307.585938 96.648438 307.96875 96.765625 308.363281 96.84375 C 308.761719 96.921875 309.160156 96.960938 309.5625 96.960938 L 321.84375 96.960938 C 322.65625 96.953125 323.441406 96.796875 324.195312 96.488281 C 324.949219 96.183594 325.617188 95.746094 326.203125 95.179688 L 330.503906 90.820312 L 334.125 90.820312 Z M 334.125 109.242188 " fill-opacity="1" fill-rule="nonzero"/></svg>