<?xml version="1.0" encoding="iso-8859-1"?>
<!-- Uploaded to: SVG Repo, www.svgrepo.com, Generator: SVG Repo Mixer Tools -->
<svg fill="#000000" height="800px" width="800px" version="1.1" id="Layer_1" xmlns="http://www.w3.org/2000/svg" xmlns:xlink="http://www.w3.org/1999/xlink" 
	 viewBox="0 0 512 512" xml:space="preserve">
<g>
	<g>
		<path d="M400.478,181.112c30.765,0,55.795-25.029,55.795-55.794V55.794C456.273,25.029,431.243,0,400.478,0
			c-30.765,0-55.794,25.029-55.794,55.794V73.9h-177.37V55.794C167.315,25.029,142.286,0,111.522,0
			C80.757,0,55.727,25.029,55.727,55.794v69.524c0,30.765,25.03,55.794,55.795,55.794c30.765,0,55.794-25.029,55.794-55.794v-18.107
			h72.029v152.625h-27.764c-9.198,0-16.655,7.457-16.655,16.655v90.891c0,9.198,7.457,16.655,16.655,16.655h27.764v15.199h-72.029
			v-12.555c0-30.765-25.029-55.794-55.794-55.794c-30.765,0-55.795,25.029-55.795,55.794v69.524
			c0,30.765,25.03,55.794,55.795,55.794c30.765,0,55.794-25.029,55.794-55.794v-12.555h177.37v12.555
			c0,30.765,25.029,55.794,55.794,55.794s55.795-25.029,55.795-55.794v-69.524c0-30.765-25.03-55.794-55.795-55.794
			c-30.765,0-55.794,25.029-55.794,55.794v12.555h-72.029v-15.199h29.817c9.198,0,16.655-7.457,16.655-16.655v-90.891
			c0-9.198-7.457-16.655-16.655-16.655h-29.817V107.211h72.029v18.107C344.685,156.083,369.713,181.112,400.478,181.112z
			 M377.996,55.794c0-12.397,10.085-22.483,22.483-22.483c12.397,0,22.484,10.085,22.484,22.483v69.524
			c0,12.397-10.087,22.483-22.484,22.483c-12.397,0-22.483-10.085-22.483-22.483V55.794z M134.004,125.318
			c0,12.397-10.085,22.483-22.483,22.483s-22.484-10.085-22.484-22.483V55.794c0-12.397,10.087-22.483,22.484-22.483
			s22.483,10.085,22.483,22.483V125.318z M134.004,456.206c0,12.397-10.085,22.483-22.483,22.483s-22.484-10.085-22.484-22.483
			v-69.524c0-12.397,10.087-22.483,22.484-22.483s22.483,10.085,22.483,22.483V456.206z M377.996,386.682
			c0-12.397,10.085-22.483,22.483-22.483c12.397,0,22.484,10.085,22.484,22.483v69.524c0,12.397-10.087,22.483-22.484,22.483
			c-12.397,0-22.483-10.085-22.483-22.483V386.682z M285.816,293.147v57.58h-57.579v-57.58H285.816z"/>
	</g>
</g>
</svg>