<svg xmlns="http://www.w3.org/2000/svg" xmlns:xlink="http://www.w3.org/1999/xlink" width="500" zoomAndPan="magnify" viewBox="0 0 375 374.999991" height="500" preserveAspectRatio="xMidYMid meet" version="1.0"><defs><clipPath id="aec632ed7f"><path d="M 0 79 L 285 79 L 285 363.75 L 0 363.75 Z M 0 79 " clip-rule="nonzero"/></clipPath><clipPath id="b5e15f5988"><path d="M 33 8.25 L 375 8.25 L 375 315 L 33 315 Z M 33 8.25 " clip-rule="nonzero"/></clipPath></defs><path fill="#ffffff" d="M 275.699219 303.527344 C 275.699219 331.792969 252.773438 354.738281 224.496094 354.738281 L 60.601562 354.738281 C 32.324219 354.738281 9.398438 331.800781 9.398438 303.527344 L 9.398438 139.640625 C 9.398438 111.367188 32.324219 88.425781 60.601562 88.425781 L 224.496094 88.425781 C 252.773438 88.425781 275.699219 111.351562 275.699219 139.640625 Z M 275.699219 303.527344 " fill-opacity="1" fill-rule="nonzero"/><g clip-path="url(#aec632ed7f)"><path fill="#154854" d="M 224.496094 363.875 L 60.601562 363.875 C 27.335938 363.875 0.265625 336.808594 0.265625 303.527344 L 0.265625 139.640625 C 0.265625 106.367188 27.335938 79.292969 60.601562 79.292969 L 224.496094 79.292969 C 257.765625 79.292969 284.832031 106.371094 284.832031 139.640625 L 284.832031 303.535156 C 284.832031 336.808594 257.765625 363.875 224.496094 363.875 Z M 60.601562 97.5625 C 37.402344 97.5625 18.53125 116.441406 18.53125 139.636719 L 18.53125 303.527344 C 18.53125 326.730469 37.40625 345.597656 60.601562 345.597656 L 224.496094 345.597656 C 247.695312 345.597656 266.566406 326.730469 266.566406 303.527344 L 266.566406 139.640625 C 266.566406 116.453125 247.691406 97.566406 224.496094 97.566406 Z M 60.601562 97.5625 " fill-opacity="1" fill-rule="nonzero"/></g><g clip-path="url(#b5e15f5988)"><path fill="#00d300" d="M 364.589844 8.25 L 348.929688 16.210938 C 267.03125 57.832031 176.164062 154.25 126.476562 235.78125 C 121.621094 226.722656 120.183594 223.753906 115.632812 213.753906 C 96.277344 178.984375 70.046875 147.894531 57.226562 135.988281 L 33.949219 142.367188 L 34.484375 143.765625 C 47.554688 162.429688 69.492188 202.925781 99.175781 289.746094 C 101.191406 293.578125 103.363281 297.394531 105.949219 300.988281 C 112.742188 310.457031 120.597656 313.296875 125.992188 314.007812 C 126 314.007812 126 314.007812 126 314.007812 C 141.394531 316.011719 152.050781 305.039062 160.144531 291.632812 C 220.039062 147.109375 328.886719 56.414062 374.761719 26.464844 Z M 364.589844 8.25 " fill-opacity="1" fill-rule="nonzero"/></g></svg>