<svg xmlns="http://www.w3.org/2000/svg" xmlns:xlink="http://www.w3.org/1999/xlink" width="500" zoomAndPan="magnify" viewBox="0 0 375 374.999991" height="500" preserveAspectRatio="xMidYMid meet" version="1.0"><defs><clipPath id="9e8b70e73b"><path d="M 0 33.410156 L 301 33.410156 L 301 337.160156 L 0 337.160156 Z M 0 33.410156 " clip-rule="nonzero"/></clipPath><clipPath id="6aa8d2056d"><path d="M 75 33.410156 L 375 33.410156 L 375 337.160156 L 75 337.160156 Z M 75 33.410156 " clip-rule="nonzero"/></clipPath></defs><g clip-path="url(#9e8b70e73b)"><path fill="#047e43" d="M 300.046875 179.601562 L 2.007812 33.609375 L 86.859375 184.847656 L 0.597656 337.5 Z M 300.046875 179.601562 " fill-opacity="1" fill-rule="nonzero"/></g><g clip-path="url(#6aa8d2056d)"><path fill="#047e43" d="M 78.183594 337.296875 C 77.375 337.296875 76.570312 336.996094 75.964844 336.390625 C 75.054688 335.378906 74.855469 333.96875 75.457031 332.757812 L 158.996094 184.746094 L 76.972656 38.25 C 76.265625 37.042969 76.46875 35.628906 77.375 34.621094 C 78.285156 33.609375 79.695312 33.410156 80.90625 34.015625 L 372.6875 176.980469 C 373.695312 177.484375 374.402344 178.492188 374.402344 179.601562 C 374.402344 180.710938 373.796875 181.820312 372.789062 182.328125 L 79.59375 336.996094 C 79.191406 337.195312 78.6875 337.296875 78.183594 337.296875 Z M 86.960938 43.699219 L 165.152344 183.234375 C 165.65625 184.140625 165.65625 185.253906 165.152344 186.160156 L 85.851562 326.804688 L 364.71875 179.804688 Z M 86.960938 43.699219 " fill-opacity="1" fill-rule="nonzero"/></g></svg>