<svg xmlns="http://www.w3.org/2000/svg" xmlns:xlink="http://www.w3.org/1999/xlink" width="170" zoomAndPan="magnify" viewBox="0 0 127.5 44.999999" height="60" preserveAspectRatio="xMidYMid meet" version="1.0"><defs><clipPath id="8956e91a92"><path d="M 14.511719 0.0859375 L 112.378906 0.0859375 L 112.378906 39 L 14.511719 39 Z M 14.511719 0.0859375 " clip-rule="nonzero"/></clipPath><clipPath id="0e1dd8c2ff"><path d="M 14.511719 31 L 22 31 L 22 44.910156 L 14.511719 44.910156 Z M 14.511719 31 " clip-rule="nonzero"/></clipPath></defs><g clip-path="url(#8956e91a92)"><path fill="#48b519" d="M 14.5625 31.28125 L 14.5625 4.328125 C 14.5625 1.980469 16.867188 0.0859375 19.730469 0.0859375 L 112.4375 0.0859375 L 96.238281 15.695312 L 112.4375 31.300781 L 21.464844 31.300781 L 21.464844 38.203125 L 14.5625 38.203125 Z M 14.5625 31.28125 " fill-opacity="1" fill-rule="nonzero"/></g><g clip-path="url(#0e1dd8c2ff)"><path fill="#047e43" d="M 14.5625 38.203125 C 14.5625 38.164062 14.5625 38.144531 14.5625 38.105469 C 14.621094 34.335938 17.679688 31.28125 21.464844 31.28125 L 21.464844 44.914062 C 17.71875 44.910156 14.660156 41.933594 14.5625 38.203125 Z M 14.5625 38.203125 " fill-opacity="1" fill-rule="nonzero"/></g></svg>